<svg width="22" height="25" viewBox="0 0 22 25" fill="none" xmlns="http://www.w3.org/2000/svg">
<path d="M21.4769 6.06128H0.497559V24.2198H21.4769V6.06128Z" stroke="#F8F5EF" stroke-width="0.995025" stroke-miterlimit="10"/>
<path d="M4.48779 6.06518C4.48779 6.06518 5.91912 0.497559 11.099 0.497559C16.2788 0.497559 17.4832 6.10379 17.4832 6.10379" stroke="#F8F5EF" stroke-width="0.995025" stroke-miterlimit="10"/>
<path d="M11.3491 18.4315C10.8091 18.4315 10.3325 18.2815 9.91912 17.9815C9.50579 17.6815 9.18579 17.2615 8.95912 16.7215C8.73245 16.1749 8.61912 15.5449 8.61912 14.8315C8.61912 14.1182 8.73245 13.4915 8.95912 12.9515C9.18579 12.4049 9.50579 11.9815 9.91912 11.6815C10.3325 11.3815 10.8091 11.2315 11.3491 11.2315C11.8891 11.2315 12.3658 11.3815 12.7791 11.6815C13.1925 11.9815 13.5125 12.4049 13.7391 12.9515C13.9658 13.4915 14.0791 14.1182 14.0791 14.8315C14.0791 15.5449 13.9658 16.1749 13.7391 16.7215C13.5125 17.2615 13.1925 17.6815 12.7791 17.9815C12.3658 18.2815 11.8891 18.4315 11.3491 18.4315ZM11.3491 17.5715C11.6958 17.5715 12.0025 17.4582 12.2691 17.2315C12.5425 16.9982 12.7525 16.6749 12.8991 16.2615C13.0525 15.8482 13.1291 15.3715 13.1291 14.8315C13.1291 14.2915 13.0525 13.8149 12.8991 13.4015C12.7525 12.9882 12.5425 12.6682 12.2691 12.4415C12.0025 12.2082 11.6958 12.0915 11.3491 12.0915C11.0025 12.0915 10.6925 12.2082 10.4191 12.4415C10.1525 12.6682 9.94245 12.9882 9.78912 13.4015C9.64245 13.8149 9.56912 14.2915 9.56912 14.8315C9.56912 15.3715 9.64245 15.8482 9.78912 16.2615C9.94245 16.6749 10.1525 16.9982 10.4191 17.2315C10.6925 17.4582 11.0025 17.5715 11.3491 17.5715Z" fill="#F8F5EF"/>
</svg>
