<svg width="29" height="25" viewBox="0 0 29 25" fill="none" xmlns="http://www.w3.org/2000/svg">
<path d="M28.9371 24.3539C28.8933 24.3687 28.8523 24.3879 28.8202 24.4012C28.7456 24.3953 28.6798 24.3849 28.6155 24.3879C28.5483 24.3908 28.4854 24.3849 28.4211 24.3598C28.3494 24.3317 28.2749 24.3169 28.1959 24.3213C28.1667 24.3228 28.136 24.3184 28.0994 24.3169C28.114 24.277 28.1316 24.2459 28.1389 24.2134C28.1491 24.1631 28.098 24.1113 28.057 24.1335C27.9708 24.1808 27.8831 24.1779 27.7895 24.1572C27.7836 24.1941 27.7793 24.2222 27.7734 24.2592C27.6901 24.2252 27.6257 24.1823 27.598 24.0995C27.5395 24.095 27.4883 24.0847 27.4386 24.0891C27.4065 24.0921 27.367 24.1098 27.345 24.1335C27.329 24.1512 27.3363 24.1897 27.3304 24.2193C27.329 24.2281 27.3217 24.237 27.3173 24.2474C27.3027 24.2474 27.288 24.2474 27.2734 24.2429C27.2588 24.24 27.2456 24.2341 27.231 24.2281C27.2325 24.1424 27.2252 24.1069 27.1901 24.0936C27.1316 24.0699 27.0717 24.064 27.0205 24.1128C27.019 24.1305 27.0146 24.1468 27.0161 24.1616C27.0176 24.1823 27.0278 24.203 27.0249 24.2222C27.0205 24.2444 27.0103 24.2696 26.9942 24.2873C26.9839 24.2977 26.9591 24.2962 26.9415 24.2991C26.9372 24.2607 26.9342 24.2311 26.9298 24.1971H26.7997C26.7749 24.1557 26.7515 24.1172 26.7296 24.0773C26.6945 24.0137 26.6462 23.9752 26.5702 23.9767C26.557 23.9767 26.5424 23.9678 26.5293 23.9619C26.522 23.9457 26.5103 23.9309 26.5117 23.9176C26.5161 23.8111 26.5249 23.7061 26.5307 23.5937C26.5527 23.6025 26.5702 23.604 26.5775 23.6144C26.598 23.644 26.6155 23.675 26.6287 23.7076C26.6682 23.7978 26.7091 23.8185 26.7939 23.7874C26.8217 23.7771 26.848 23.7623 26.867 23.7519C26.9123 23.7667 26.9372 23.8229 26.9839 23.7874C27.019 23.7593 26.9971 23.7209 26.9927 23.6868C26.9927 23.6765 26.9927 23.6661 26.9956 23.6499C27.0395 23.6144 27.0834 23.5774 27.079 23.5035C27.0746 23.4487 27.1141 23.4088 27.1579 23.3777C27.1857 23.357 27.2222 23.3437 27.2252 23.2979C27.2047 23.255 27.174 23.2417 27.1287 23.2624C27.1038 23.2727 27.0892 23.3156 27.0527 23.2934C27.0176 23.1899 27.0161 23.1869 26.9182 23.1958C26.8451 23.2017 26.7763 23.1899 26.6989 23.1633C26.6886 23.116 26.6813 23.0657 26.6667 23.0169C26.6506 22.9636 26.6155 22.9281 26.5556 22.9266C26.5205 22.9266 26.4839 22.9266 26.4489 22.9326C26.4182 22.937 26.3904 22.9503 26.3875 22.9976C26.4182 23.0302 26.4518 23.0672 26.4883 23.1071C26.4591 23.1322 26.4328 23.1529 26.3977 23.181C26.4401 23.218 26.4766 23.2491 26.5117 23.2801C26.4591 23.3496 26.3816 23.4132 26.2924 23.4606C26.3246 23.4339 26.3085 23.4044 26.2851 23.3866C26.2486 23.36 26.2076 23.3422 26.1711 23.323C26.1667 23.2816 26.1594 23.2446 26.2091 23.2239C26.2427 23.2594 26.2749 23.3008 26.3129 23.3334C26.3436 23.3585 26.3787 23.357 26.4035 23.3067C26.3889 23.289 26.367 23.2727 26.3582 23.252C26.348 23.2239 26.3538 23.1899 26.3407 23.1633C26.3041 23.0849 26.2793 23.0021 26.2193 22.937C26.2164 22.934 26.2091 22.934 26.1974 22.9326C26.1799 22.9725 26.1725 23.0228 26.1418 23.0509C26.0907 23.0997 26.0761 23.1515 26.0863 23.2165C26.0892 23.2358 26.0892 23.2594 26.0819 23.2772C26.0746 23.2934 26.0585 23.3097 26.0424 23.3171C26.0234 23.326 25.9913 23.2949 25.9927 23.2712C25.9956 23.2254 26.003 23.1796 26.003 23.1322C26.003 23.0524 26.0176 22.9784 26.0687 22.9148C26.0731 22.9089 26.0687 22.8956 26.0687 22.8852C25.9386 22.8157 25.7676 22.7714 25.6331 22.7743C25.5921 22.7743 25.5731 22.7921 25.5658 22.8409C25.5629 22.8645 25.5629 22.8897 25.5614 22.9104C25.4138 22.9326 25.4255 22.9636 25.4167 23.0731C25.4123 23.1189 25.4182 23.1662 25.4167 23.2121C25.4167 23.2195 25.405 23.2269 25.3992 23.2358C25.3509 23.2461 25.3114 23.2254 25.2705 23.1884C25.269 23.1411 25.269 23.0908 25.2647 23.039C25.253 22.9 25.1521 22.8039 25.0132 22.8009C24.9167 22.798 24.8188 22.798 24.7223 22.798C24.7076 22.798 24.6886 22.795 24.6784 22.8039C24.6653 22.8142 24.6477 22.8364 24.6506 22.8512C24.6579 22.8882 24.6755 22.9252 24.6901 22.9695C24.655 22.9799 24.6287 22.9962 24.6097 22.9902C24.5892 22.9843 24.5702 22.9592 24.56 22.9385C24.5293 22.8764 24.5264 22.8113 24.5381 22.7403C24.5585 22.7314 24.5761 22.7196 24.5951 22.7181C24.636 22.7152 24.6769 22.7196 24.7179 22.7196C24.7705 22.7196 24.8114 22.6974 24.8027 22.6752C24.791 22.6486 24.7705 22.6249 24.7486 22.6072C24.7296 22.5924 24.7033 22.582 24.6784 22.5806C24.5848 22.5761 24.4971 22.5569 24.4123 22.5184C24.3743 22.5022 24.3422 22.5125 24.3158 22.5421C24.2924 22.5687 24.2734 22.5998 24.2501 22.6279C24.2033 22.6826 24.1565 22.7388 24.0863 22.764C24.0205 22.7876 23.9854 22.829 23.9869 22.9015C23.9869 22.9459 23.9664 22.9799 23.9299 23.005C23.9226 23.0095 23.908 23.0139 23.9021 23.0109C23.8919 23.0021 23.8772 22.9873 23.8787 22.9769C23.8875 22.9237 23.9006 22.8704 23.9138 22.8142C23.867 22.8009 23.8261 22.7935 23.7895 22.7773C23.7778 22.7714 23.7734 22.7462 23.7647 22.7255C23.8085 22.7181 23.8422 22.7122 23.8758 22.7063C23.8948 22.582 23.9182 22.4637 23.7691 22.3972C23.715 22.4356 23.6594 22.4711 23.6068 22.5111C23.5717 22.5392 23.5585 22.5761 23.579 22.6205C23.5849 22.6338 23.5849 22.6501 23.5878 22.6619C23.5585 22.6767 23.5293 22.6856 23.5074 22.7048C23.4854 22.7225 23.4723 22.7492 23.4504 22.7758C23.408 22.693 23.484 22.6545 23.4957 22.5939C23.4825 22.5584 23.4679 22.5214 23.4562 22.4918C23.484 22.4208 23.5381 22.372 23.5293 22.2907C23.5001 22.2729 23.4664 22.2522 23.4284 22.2286C23.4518 22.1872 23.4737 22.1472 23.4942 22.1073C23.4971 22.1014 23.4913 22.0836 23.4854 22.0807C23.4737 22.0733 23.4533 22.0644 23.446 22.0703C23.367 22.1354 23.2852 22.1975 23.2778 22.3143C23.2749 22.3602 23.2822 22.409 23.2457 22.446C23.1287 22.4775 23.0498 22.549 23.0088 22.6604C22.9811 22.6604 22.9518 22.6604 22.9226 22.6604C22.8904 22.659 22.8597 22.6915 22.8246 22.6678C22.8363 22.622 22.8539 22.5835 22.8539 22.5436C22.8539 22.5051 22.8349 22.4667 22.8246 22.4297C22.8319 22.4208 22.8392 22.4134 22.8436 22.4046C22.9211 22.2744 22.9167 22.2493 22.8042 22.1605C22.7808 22.1413 22.7559 22.1206 22.7281 22.1103C22.6667 22.0866 22.6565 22.0274 22.6316 21.9786C22.6068 21.9313 22.6243 21.8884 22.6463 21.847C22.6536 21.8337 22.655 21.8174 22.6609 21.7937C22.6331 21.776 22.6053 21.7509 22.5746 21.7405C22.5045 21.7168 22.4518 21.7568 22.4518 21.8307C22.4518 21.8721 22.4577 21.9135 22.4635 21.9535C22.4767 22.06 22.4606 22.0748 22.3612 22.0393C22.3115 22.0215 22.2588 22.0112 22.2121 22.0319C22.1828 22.0437 22.1638 22.0807 22.139 22.1043C22.1346 22.1088 22.1229 22.1073 22.1097 22.1088C22.0717 22.06 22.0776 22.0052 22.098 21.9505C22.1112 21.9165 22.1302 21.8854 22.1448 21.8529C22.1814 21.776 22.1857 21.6961 22.1609 21.5956C22.0863 21.6207 22.0337 21.5911 21.9957 21.5261C21.9869 21.5113 21.9621 21.5039 21.9445 21.495C21.9167 21.4817 21.8831 21.4684 21.8627 21.4994C21.851 21.5172 21.848 21.5482 21.8539 21.5704C21.8802 21.6725 21.9328 21.7597 22.0147 21.8263C21.9548 21.9579 21.8159 21.9062 21.7311 21.9757C21.7179 21.9446 21.7077 21.9195 21.6974 21.8973C21.6463 21.7864 21.6273 21.6813 21.7325 21.5867C21.7501 21.5719 21.7515 21.529 21.7472 21.5009C21.7413 21.461 21.7252 21.4225 21.7106 21.3841C21.6931 21.3382 21.6609 21.3042 21.6127 21.2939C21.5439 21.2805 21.4738 21.2717 21.4021 21.2613C21.3787 21.3308 21.3583 21.3929 21.3363 21.4595C21.3744 21.5024 21.4094 21.5438 21.4504 21.5896C21.3846 21.6311 21.3261 21.6725 21.2647 21.705C21.2238 21.7272 21.1784 21.7242 21.1404 21.6858C21.1682 21.6399 21.1945 21.6015 21.2165 21.5615C21.2296 21.5394 21.2369 21.5142 21.2033 21.4861C21.1711 21.4965 21.1331 21.5098 21.0966 21.5216C21.0542 21.5364 21.0103 21.5527 20.9679 21.566C20.9606 21.5675 20.9504 21.5586 20.9401 21.5542C20.9445 21.5246 20.9489 21.495 20.9533 21.461C20.9942 21.4314 21.0352 21.4018 21.0732 21.3752C21.0878 21.3767 21.0966 21.3767 21.1068 21.3796C21.1887 21.3974 21.2282 21.3811 21.2486 21.3116C21.2632 21.2628 21.2676 21.2125 21.2764 21.1637C21.2325 21.1179 21.1799 21.1134 21.1302 21.109C21.0703 21.1045 21.0206 21.0883 20.9899 21.0306C20.965 20.9833 20.9226 20.9714 20.8729 20.9729C20.8378 20.9729 20.8042 20.9729 20.772 20.9729C20.7106 20.8753 20.7106 20.8723 20.6229 20.8487C20.5864 20.8398 20.5556 20.825 20.5337 20.7954C20.5103 20.7614 20.4782 20.7496 20.4402 20.7585C20.389 20.7703 20.3524 20.754 20.3188 20.7156C20.2881 20.6801 20.2179 20.6978 20.2092 20.6254C20.2048 20.5884 20.1609 20.5736 20.1229 20.578C20.0981 20.581 20.0732 20.5928 20.0483 20.5958C20.0147 20.5987 19.9899 20.581 19.9782 20.5499C19.9723 20.5351 19.9709 20.5203 19.9709 20.5041C19.9709 20.4449 19.9519 20.3932 19.9138 20.3488C19.8758 20.3044 19.8247 20.3044 19.7735 20.3015C19.7194 20.297 19.6697 20.2763 19.6463 20.2275C19.5995 20.1314 19.5074 20.0781 19.4519 19.9909C19.4255 19.9509 19.3846 19.948 19.3422 19.9598C19.3057 19.9702 19.275 20.0116 19.2311 19.985C19.2311 19.9776 19.2296 19.9702 19.2311 19.9687C19.2384 19.9628 19.2486 19.9598 19.256 19.9539C19.3027 19.9169 19.3086 19.8903 19.2677 19.8563C19.2282 19.8237 19.1843 19.7971 19.1419 19.769C19.0747 19.7232 19.0103 19.7202 18.9504 19.7853C18.946 19.7897 18.9314 19.7853 18.9314 19.7853C18.8948 19.7498 18.8685 19.7054 18.8305 19.6892C18.6799 19.6241 18.5747 19.5013 18.4489 19.4052C18.4197 19.383 18.3949 19.3534 18.4109 19.312C18.4256 19.275 18.4621 19.2898 18.4913 19.2854C18.4957 19.2854 18.5016 19.2824 18.506 19.281C18.5513 19.2647 18.5615 19.21 18.522 19.1833C18.4943 19.1641 18.4577 19.1582 18.4256 19.1449C18.3875 19.1301 18.3349 19.1242 18.3174 19.0976C18.2779 19.034 18.2121 19.0266 18.1551 19.0074C18.158 18.9497 18.1609 18.9009 18.1624 18.855C18.0805 18.821 18.0688 18.9186 18.006 18.9171C17.9592 18.8949 17.9416 18.8476 17.9226 18.7988C17.8992 18.7367 17.8773 18.6731 17.8466 18.6139C17.8232 18.5696 17.7954 18.5178 17.756 18.4927C17.6785 18.4439 17.6346 18.3699 17.5849 18.2989C17.5615 18.2649 17.5381 18.2294 17.5089 18.2028C17.4884 18.1836 17.4577 18.1702 17.43 18.1658C17.3349 18.1525 17.3291 18.1495 17.3203 18.0608C17.3071 17.944 17.2779 17.9159 17.1463 17.8966C17.1244 17.9218 17.1039 17.9484 17.0835 17.9735C17.0615 17.9602 17.0469 17.9543 17.0367 17.944C16.9563 17.873 16.8759 17.802 16.7969 17.728C16.7545 17.6896 16.7224 17.6437 16.7107 17.5772C16.7238 17.5506 16.7428 17.521 16.756 17.487C16.775 17.4382 16.7384 17.3879 16.6887 17.3938C16.6639 17.3967 16.639 17.4071 16.6142 17.4115C16.5498 17.4248 16.4855 17.4293 16.4124 17.4071C16.4124 17.3657 16.4051 17.3287 16.4124 17.2962C16.4446 17.1867 16.408 17.0935 16.351 17.0048C16.3379 16.9826 16.3262 16.9604 16.3189 16.9471C16.3364 16.8939 16.351 16.851 16.3627 16.8081C16.3759 16.7593 16.4022 16.7253 16.4504 16.7105C16.4694 16.7046 16.487 16.6957 16.4943 16.6927C16.5381 16.6144 16.5674 16.5419 16.6127 16.4798C16.7574 16.2801 16.8846 16.0686 17.0118 15.8571C17.0148 15.8527 17.0177 15.8482 17.0206 15.8438C17.082 15.7477 17.0879 15.6515 17.0206 15.5554C16.9314 15.4267 16.8729 15.2848 16.851 15.128C16.8495 15.1132 16.8466 15.0969 16.8408 15.0821C16.8276 15.0437 16.7969 15.0171 16.7589 15.0304C16.6946 15.0511 16.6419 15.0289 16.5835 15.0097C16.5308 14.9934 16.4724 14.9919 16.4168 14.9934C16.351 14.9934 16.3203 15.0333 16.3203 15.1058C16.3203 15.1354 16.3232 15.165 16.3247 15.1916C16.2648 15.2152 16.218 15.1916 16.1931 15.1561C16.1346 15.0733 16.0499 15.0673 15.9621 15.0614C15.9227 15.0585 15.8817 15.0392 15.8496 15.0807C15.8466 15.0925 15.8437 15.1014 15.8437 15.1117C15.8437 15.1221 15.8481 15.1324 15.8466 15.1428C15.8437 15.2315 15.8232 15.3158 15.7604 15.3809C15.6537 15.4918 15.5192 15.5687 15.4051 15.6693C15.3963 15.6767 15.3686 15.6752 15.3642 15.6693C15.354 15.6545 15.3437 15.6294 15.3496 15.6146C15.3583 15.5924 15.3861 15.5776 15.3949 15.5554C15.4037 15.5347 15.4095 15.5051 15.4022 15.4844C15.3905 15.4519 15.3569 15.443 15.3262 15.4563C15.2648 15.4815 15.2048 15.5096 15.142 15.5391C15.0601 15.5017 14.9889 15.5155 14.9285 15.5806C14.9139 15.5953 14.9022 15.6116 14.8876 15.6264C14.8262 15.69 14.7896 15.6959 14.7136 15.6456C14.6844 15.6264 14.6566 15.6013 14.6317 15.5761C14.5601 15.5036 14.5133 15.4075 14.4227 15.3528C14.4081 15.3439 14.4022 15.3188 14.392 15.301C14.3715 15.2655 14.3525 15.2286 14.3291 15.196C14.2238 15.0585 14.1186 14.918 14.0075 14.7849C13.9373 14.702 13.8744 14.6163 13.8233 14.5201C13.8086 14.4935 13.7896 14.4595 13.7662 14.4521C13.6844 14.4299 13.661 14.3619 13.6274 14.2983C13.601 14.248 13.5718 14.1992 13.5382 14.1548C13.4899 14.0897 13.4358 14.0261 13.3847 13.964C13.3203 13.8856 13.2867 13.7821 13.1888 13.7303C13.1756 13.723 13.1727 13.6949 13.1639 13.6771C13.1011 13.5484 13.0396 13.4183 12.9578 13.2985C12.9285 13.2985 12.9037 13.3 12.8774 13.2985C12.7897 13.2926 12.7619 13.2541 12.7809 13.1654C12.7867 13.1358 12.8013 13.1062 12.8057 13.0766C12.8087 13.0515 12.8101 13.0219 12.7999 13.0012C12.7502 12.9066 12.7253 12.7971 12.6288 12.7306C12.6011 12.7113 12.5821 12.6758 12.566 12.6448C12.5367 12.5901 12.5119 12.5339 12.487 12.4777C12.4695 12.4392 12.4402 12.4259 12.4008 12.4303C12.3949 12.4303 12.3876 12.4185 12.3818 12.4141C12.3978 12.3756 12.4139 12.3401 12.4285 12.3031C12.3686 12.2321 12.294 12.1804 12.2765 12.0872C12.2721 12.068 12.2443 12.0414 12.2239 12.0369C12.1391 12.0221 12.1332 11.9644 12.1405 11.8979C12.1478 11.8313 12.161 11.7648 12.1332 11.6923C12.1098 11.682 12.0821 11.6686 12.0543 11.6613C11.9929 11.6435 11.9417 11.6864 11.8657 11.716C11.8862 11.6672 11.8935 11.6376 11.9095 11.6154C11.9198 11.6006 11.9446 11.5947 11.9593 11.5814C11.9973 11.5459 12.0031 11.5015 11.99 11.4542C11.9768 11.4098 11.9402 11.4083 11.9037 11.4069C11.8949 11.4069 11.8862 11.398 11.8759 11.3936C11.873 11.3906 11.8686 11.3876 11.8671 11.3832C11.8204 11.2886 11.7473 11.2013 11.7867 11.0815C11.7926 11.0652 11.7809 11.0386 11.7707 11.0238C11.7166 10.9528 11.6932 10.87 11.6917 10.7813C11.6493 10.7606 11.6113 10.7443 11.5762 10.7265C11.506 10.691 11.4958 10.6777 11.5119 10.592C11.5382 10.4455 11.5148 10.305 11.487 10.163C11.4417 10.1512 11.4037 10.1423 11.3613 10.1305C11.3613 10.1009 11.3584 10.0758 11.3613 10.0521C11.3774 9.94859 11.3525 9.85838 11.2794 9.78295C11.2546 9.75781 11.2356 9.72527 11.2239 9.69125C11.1771 9.54631 11.0982 9.40581 11.1289 9.24312C11.1289 9.23868 11.1289 9.23129 11.1274 9.22833C11.1186 9.21354 11.1084 9.20023 11.0894 9.17361C11.0572 9.22833 11.0309 9.27122 11.0031 9.31855C10.9856 9.30228 10.9666 9.29489 10.9651 9.28305C10.9607 9.25347 10.9622 9.22242 10.9622 9.19136C10.9636 9.11889 10.9724 9.04642 10.9666 8.97543C10.9549 8.82605 10.9154 8.69294 10.7604 8.62639C10.7166 8.60716 10.6815 8.56279 10.6449 8.52729C10.6259 8.50807 10.6493 8.46518 10.68 8.45778C10.6917 8.47109 10.7312 8.4918 10.759 8.49624C10.7444 8.45482 10.7283 8.41933 10.7195 8.38235C10.7078 8.33355 10.702 8.28178 10.6932 8.2315C10.6727 8.11022 10.6493 7.98895 10.6347 7.86619C10.6215 7.75379 10.6259 7.75379 10.5368 7.66061C10.5368 7.61033 10.5397 7.55413 10.5368 7.49792C10.5338 7.45651 10.5104 7.4506 10.4593 7.4713C10.4476 7.47574 10.4344 7.47574 10.4213 7.4787C10.4213 7.41658 10.4154 7.3589 10.4213 7.3027C10.4315 7.22579 10.411 7.15924 10.3715 7.09712C10.3145 7.00542 10.259 6.91225 10.1932 6.82795C10.1376 6.75843 10.123 6.68301 10.1113 6.60018C10.0982 6.50405 10.0748 6.40792 10.0543 6.31326C10.047 6.27777 10.0294 6.24523 10.0251 6.20973C10.0134 6.12691 9.99144 6.05148 9.94319 5.97901C9.91541 5.93908 9.90957 5.88288 9.89641 5.83259C9.87594 5.74681 9.85986 5.66103 9.83793 5.57673C9.81892 5.5013 9.77799 5.44066 9.69758 5.39481C9.68296 5.4806 9.73267 5.55306 9.70343 5.63737C9.65665 5.5856 9.61863 5.54567 9.58355 5.50722C9.58501 5.45989 9.58355 5.41848 9.59086 5.37855C9.59378 5.35636 9.60548 5.3253 9.62302 5.31643C9.67419 5.28833 9.68004 5.24692 9.6698 5.19811C9.64349 5.07092 9.61279 4.9452 9.47097 4.89344C9.44758 4.7204 9.42273 4.55623 9.35255 4.39798C9.27361 4.2205 9.21805 4.03119 9.09232 3.87738C9.08063 3.86259 9.07478 3.84041 9.06747 3.82118C9.04115 3.76054 9.00899 3.6999 8.98706 3.63779C8.95051 3.53426 8.84671 3.45735 8.86426 3.33016C8.86718 3.30649 8.84233 3.27987 8.81309 3.28283C8.797 3.28431 8.778 3.30206 8.76923 3.31685C8.75315 3.34199 8.7473 3.37453 8.73122 3.39819C8.71075 3.42777 8.65666 3.42629 8.63765 3.39819C8.59379 3.33755 8.59964 3.27396 8.62011 3.20592C8.63619 3.20001 8.65227 3.19705 8.66543 3.19113C8.68151 3.18374 8.69759 3.17339 8.71221 3.16451C8.70344 3.10535 8.69759 3.05507 8.68882 3.00478C8.66981 2.88794 8.65227 2.87167 8.52069 2.84801C8.51192 2.84653 8.50461 2.83618 8.49291 2.82583C8.49291 2.80956 8.48414 2.78589 8.48999 2.76962C8.528 2.67645 8.49584 2.59806 8.44613 2.52263C8.35695 2.39101 8.3204 2.22832 8.22099 2.1026C8.21222 2.09077 8.20783 2.0745 8.20637 2.05971C8.20052 1.99612 8.18298 1.93992 8.1245 1.90146C8.10988 1.89259 8.09818 1.86597 8.09818 1.84822C8.09818 1.76392 8.04701 1.70476 8.00608 1.63968C7.92128 1.50657 7.83064 1.37495 7.79409 1.21522C7.74731 1.20486 7.70784 1.18564 7.69614 1.13091C7.69029 1.10577 7.68591 1.07323 7.66836 1.05992C7.56456 0.981537 7.55725 0.827723 7.43737 0.761169C7.41836 0.750816 7.40959 0.718278 7.40228 0.694615C7.38474 0.647287 7.37012 0.598481 7.3555 0.551153C7.26632 0.52749 7.26778 0.526011 7.22246 0.480162C7.15375 0.41065 7.09673 0.330785 7.04849 0.245004C6.99439 0.15035 6.92568 0.0660479 6.83065 0.0113256C6.81165 0.000972741 6.77656 -0.00494318 6.7634 0.00540968C6.74878 0.0172415 6.74001 0.0527371 6.74586 0.0734428C6.75609 0.117812 6.7751 0.160703 6.79264 0.202114C6.80872 0.239089 6.83065 0.274584 6.84966 0.31008C6.80287 0.389945 6.78533 0.475725 6.84235 0.545237C6.91983 0.636934 6.971 0.75969 7.09966 0.799622C7.12012 0.805538 7.13767 0.833639 7.11135 0.86026C7.08796 0.858781 7.06457 0.855823 7.03387 0.854344C7.03094 0.938646 7.0441 1.00816 7.06164 1.07915C7.16106 1.10725 7.21076 1.16789 7.221 1.27585C7.23123 1.37199 7.26193 1.46664 7.2941 1.55834C7.32772 1.65151 7.35842 1.74469 7.35696 1.84378C7.35404 1.96062 7.40082 2.06563 7.42421 2.17655C7.43006 2.20317 7.45491 2.2298 7.47684 2.24902C7.52363 2.28748 7.5514 2.33776 7.55433 2.39396C7.56018 2.50637 7.59673 2.61433 7.60842 2.72673C7.62743 2.90125 7.65667 3.07281 7.6245 3.24881C7.6055 3.3553 7.63766 3.45291 7.70491 3.53869C7.71807 3.55496 7.7283 3.57271 7.73269 3.58011C7.73854 3.64814 7.74292 3.70286 7.74731 3.75906C7.75169 3.82414 7.79848 3.86703 7.83356 3.90696C7.82041 3.94985 7.81017 3.98239 7.79409 4.03267C7.83064 4.05634 7.87011 4.08148 7.90666 4.10514C7.88327 4.17613 7.87158 4.23234 7.89789 4.28706C7.94321 4.38023 7.93736 4.47785 7.91251 4.57398C7.89789 4.63166 7.89204 4.6849 7.92567 4.73667C7.95783 4.78695 7.96222 4.84315 7.96514 4.89936C7.96807 4.96591 7.97538 5.03246 7.98415 5.09902C7.99 5.14635 7.98415 5.18924 7.96807 5.23508C7.93152 5.33566 7.90374 5.43771 7.8745 5.53384C7.9359 5.59596 7.96953 5.49982 8.02801 5.52792C8.03093 5.54123 8.04117 5.56194 8.03678 5.57673C8.02362 5.6211 8.00169 5.66251 7.98707 5.7054C7.96368 5.77787 7.93737 5.85034 7.97684 5.93168H8.12596C8.18882 5.88584 8.1742 5.77935 8.27069 5.75864C8.29409 5.82816 8.23999 5.86809 8.22245 5.91837C8.20637 5.9657 8.17128 5.99084 8.12596 6.01007C8.00169 6.06183 7.98122 6.09881 7.99584 6.2334C7.99731 6.2541 8.00023 6.27481 8.00608 6.29403C8.02508 6.3665 8.02362 6.43602 8.00023 6.50701C7.99 6.53659 7.98415 6.56617 7.97976 6.59723C7.97099 6.66082 7.98561 6.73329 7.90959 6.77027C7.90082 6.7747 7.90228 6.79837 7.89789 6.81316C7.89351 6.83682 7.90082 6.8664 7.86719 6.87084C7.8321 6.8383 7.79994 6.80724 7.76631 6.77766C7.73707 6.75252 7.71953 6.72294 7.72099 6.68448C7.72684 6.56912 7.6976 6.46116 7.65374 6.35467C7.63327 6.30439 7.63328 6.24375 7.6245 6.18755C7.61573 6.13135 7.61134 6.07515 7.59965 6.01894C7.55725 5.8178 7.54117 5.61222 7.51193 5.40812C7.50608 5.3608 7.5017 5.31939 7.46222 5.28389C7.44614 5.27058 7.44029 5.23804 7.44029 5.21438C7.43445 5.08719 7.40959 4.95852 7.46369 4.8328C7.47538 4.80766 7.46953 4.77364 7.47246 4.74406C7.49585 4.74702 7.51924 4.7485 7.54848 4.75146C7.56895 4.69969 7.58942 4.64793 7.61135 4.59025C7.54556 4.49855 7.56749 4.38763 7.56018 4.27818C7.46661 4.24121 7.42275 4.17318 7.42275 4.07556C7.42275 4.06225 7.40959 4.04894 7.40082 4.03415C7.35989 4.01936 7.29263 4.06817 7.27363 3.98239C7.33503 3.96168 7.35404 3.91288 7.34673 3.85076C7.3438 3.8197 7.34527 3.78716 7.33503 3.75906C7.31895 3.71321 7.31603 3.67032 7.32187 3.623C7.3248 3.60525 7.31456 3.58602 7.30872 3.56532C7.24585 3.56532 7.20492 3.58898 7.17568 3.63335C7.18737 3.66589 7.20053 3.69399 7.20784 3.72357C7.21223 3.74427 7.20784 3.76498 7.17275 3.76498C7.12451 3.70878 7.10404 3.64518 7.12743 3.56975C7.15229 3.48841 7.16106 3.4115 7.11281 3.33312C7.09088 3.29762 7.08942 3.25325 7.1172 3.21628C7.17129 3.14233 7.15521 3.07134 7.11135 3.00034C7.05872 2.91604 7.03387 2.82287 7.02363 2.72378C7.01047 2.6025 7.00755 2.60102 6.88621 2.51228C6.86135 2.56257 6.8365 2.61285 6.81457 2.66314C6.8058 2.68089 6.79556 2.70307 6.79849 2.72082C6.81311 2.79181 6.78387 2.85097 6.7634 2.91456C6.75171 2.95154 6.75902 2.99443 6.75755 3.03584C6.75317 3.11571 6.78533 3.19853 6.74293 3.30501C6.73709 3.25177 6.73124 3.22367 6.73124 3.19557C6.73124 3.15416 6.75024 3.10683 6.73416 3.07429C6.69323 2.98999 6.70785 2.91456 6.7444 2.83766C6.76194 2.7992 6.77363 2.75779 6.75609 2.71934C6.73124 2.6661 6.71077 2.60546 6.63913 2.57736C6.62598 2.60546 6.61282 2.62616 6.60405 2.64835C6.59527 2.67201 6.58943 2.69715 6.58212 2.7223C6.57627 2.74152 6.59235 2.77258 6.54849 2.78293C6.52802 2.68236 6.4637 2.59954 6.44323 2.50489C6.48709 2.46347 6.52364 2.4827 6.56311 2.49601C6.58358 2.50341 6.60843 2.49897 6.64644 2.50193C6.61428 2.42502 6.59089 2.3629 6.56311 2.30375C6.5368 2.24754 6.51194 2.19282 6.51194 2.12775C6.51194 2.05971 6.48855 1.9976 6.45785 1.93992C6.41107 1.93992 6.37013 1.93252 6.34966 1.88963C6.33212 1.85266 6.31019 1.81568 6.30727 1.77723C6.30288 1.71807 6.28826 1.66778 6.24732 1.62341C6.23124 1.60567 6.22247 1.57904 6.21078 1.55686C6.10844 1.37347 5.9944 1.19599 5.91838 0.997806C5.91546 0.988932 5.90522 0.981537 5.90084 0.972663C5.88329 0.935688 5.86721 0.898714 5.84967 0.861739C5.8409 0.845471 5.8292 0.830681 5.81751 0.812933C5.7561 0.835118 5.74587 0.876529 5.75172 0.925335C5.76049 0.999284 5.79996 1.05992 5.83651 1.12204C5.90961 1.24332 5.9754 1.36903 6.00171 1.51101C5.93885 1.47256 5.90815 1.41044 5.88914 1.34389C5.8599 1.24332 5.82189 1.15014 5.7561 1.0688C5.72832 1.03478 5.72248 0.994847 5.7254 0.951957C5.72832 0.920898 5.72979 0.88984 5.72832 0.86026C5.72394 0.807017 5.70493 0.75969 5.66254 0.725673C5.65669 0.721236 5.64353 0.719757 5.63476 0.722715C5.62599 0.725673 5.61429 0.736026 5.61429 0.741942C5.61575 0.781874 5.61722 0.823286 5.62453 0.863218C5.64645 0.971184 5.64353 1.07619 5.59675 1.17085C5.51341 1.19747 5.45347 1.11317 5.37745 1.1531C5.34967 1.21522 5.32043 1.27881 5.28973 1.34684C5.31751 1.47847 5.33652 1.61602 5.40669 1.74025C5.43593 1.79202 5.44032 1.85857 5.45347 1.91773C5.47833 2.02865 5.49733 2.14106 5.5295 2.24902C5.56312 2.3629 5.61283 2.47087 5.65084 2.58327C5.68739 2.69124 5.73125 2.79477 5.80727 2.87167C5.7985 2.90865 5.77949 2.94414 5.78827 2.96485C5.81897 3.02845 5.85698 3.09056 5.92131 3.1231C5.99879 3.09944 5.95054 3.02253 5.99294 2.97224C6.01487 3.0388 6.0368 3.095 6.05288 3.15416C6.06165 3.18522 6.02803 3.21332 5.99733 3.20592C5.96516 3.19705 5.93885 3.1586 5.8906 3.19261C5.87598 3.25917 5.86136 3.33312 5.84382 3.4115C5.97394 3.53426 5.96663 3.69842 5.97394 3.8552C6.00464 3.87886 6.03241 3.90104 6.05727 3.92027C6.06896 4.05929 6.08505 4.1924 6.09089 4.32551C6.09528 4.40833 6.09382 4.48968 6.12452 4.56806C6.1406 4.60948 6.14206 4.6568 6.14937 4.70265C6.10405 4.64497 6.06019 4.60208 5.96955 4.60652C5.98856 4.78104 5.9944 4.95112 6.07335 5.10641C6.08505 5.1286 6.09967 5.15078 6.11721 5.16853C6.13329 5.18332 6.15376 5.19367 6.17861 5.20846C6.10844 5.29424 6.06604 5.37855 6.11867 5.4806C6.12452 5.49243 6.11867 5.51165 6.11575 5.52644C6.10844 5.55898 6.10405 5.59596 6.14206 5.60187C6.16692 5.60631 6.19908 5.58708 6.22247 5.56933C6.24148 5.55454 6.25317 5.5294 6.26633 5.50722C6.27803 5.48651 6.2868 5.46581 6.3058 5.42883C6.32773 5.45693 6.34089 5.47024 6.34966 5.48651C6.36136 5.5087 6.36867 5.53236 6.37744 5.5575C6.33066 5.5856 6.28972 5.61075 6.25171 5.63293C6.26048 5.69209 6.26633 5.7409 6.27656 5.81041C6.24002 5.78231 6.22101 5.76752 6.20054 5.75421C6.15522 5.72758 6.11867 5.74385 6.11575 5.7971C6.1099 5.90506 6.1099 6.01303 6.10844 6.12099C6.10844 6.17276 6.10844 6.22452 6.10405 6.27481C6.08797 6.45376 6.13768 6.61941 6.18885 6.77175C6.24586 6.82055 6.2751 6.71998 6.32481 6.77175C6.31019 6.86788 6.28826 6.9581 6.21516 7.03205C6.16984 7.07789 6.1406 7.14297 6.1099 7.20213C6.09382 7.23319 6.08358 7.26868 6.07627 7.30418C6.07335 7.31453 6.08651 7.33376 6.09674 7.33967C6.10698 7.34559 6.13037 7.34559 6.13914 7.33967C6.15668 7.3234 6.16984 7.30122 6.183 7.27904C6.202 7.24502 6.21955 7.20952 6.24148 7.16811C6.26925 7.19325 6.28534 7.21396 6.3058 7.22431C6.41691 7.27756 6.43446 7.37517 6.43007 7.48313C6.43007 7.51124 6.43884 7.54821 6.40814 7.5556C6.34381 7.52898 6.28972 7.50236 6.23271 7.48461C6.18885 7.4713 6.15083 7.50384 6.1523 7.55117C6.15376 7.62807 6.16253 7.70498 6.16692 7.77449C6.21809 7.81443 6.26633 7.84401 6.30434 7.88394C6.34235 7.92535 6.41984 7.93422 6.42276 8.00965C6.4096 8.01409 6.40083 8.01853 6.39206 8.01853C6.28826 8.01113 6.27072 8.02148 6.26779 8.11762C6.26487 8.22115 6.25463 8.32172 6.20785 8.41785C6.18007 8.47553 6.17715 8.53765 6.19762 8.59829C6.202 8.61308 6.2254 8.62491 6.24148 8.62934C6.24879 8.63082 6.26779 8.61455 6.27218 8.60272C6.29996 8.52434 6.32773 8.44447 6.38621 8.37644C6.41107 8.49032 6.35112 8.57019 6.29703 8.66336C6.34528 8.67519 6.38767 8.67667 6.41691 8.69738C6.44908 8.71808 6.46808 8.75802 6.49147 8.78612C6.50902 8.78168 6.51925 8.77872 6.52802 8.77576C6.54264 8.77281 6.5558 8.76985 6.57042 8.76689C6.61428 8.8645 6.61428 8.8645 6.59089 8.93401C6.58212 8.9207 6.57481 8.90591 6.56457 8.89408C6.53095 8.85563 6.50756 8.84971 6.47393 8.87338C6.40229 8.92218 6.36574 8.99613 6.3482 9.07895C6.33504 9.14107 6.38914 9.16769 6.41691 9.2091C6.41984 9.21354 6.41984 9.21946 6.42569 9.23425C6.41107 9.26826 6.39352 9.30968 6.37598 9.35109C6.35113 9.35848 6.33212 9.36292 6.31311 9.36883C6.21516 9.40137 6.19908 9.42947 6.21809 9.52709C6.22247 9.55075 6.22832 9.57441 6.23563 9.60695H6.12013C6.08797 9.70161 6.05581 9.78739 6.02803 9.87317C6.0178 9.90718 6.00902 9.94268 6.00756 9.97817C6.00756 10.0018 6.01195 10.0299 6.05581 10.0299C6.11282 9.96338 6.14937 9.87908 6.18738 9.7933C6.23563 9.79034 6.27803 9.78739 6.31458 9.78443C6.35843 9.87612 6.27364 9.92345 6.26048 9.98853C6.36136 10.061 6.37598 10.0625 6.44323 9.99592C6.45493 9.98557 6.4637 9.97226 6.47393 9.96191C6.51048 9.92937 6.56019 9.9412 6.5675 9.98853C6.58065 10.0758 6.59089 10.163 6.59381 10.2503C6.59381 10.2814 6.57481 10.3243 6.54995 10.3435C6.48709 10.3908 6.47832 10.45 6.48124 10.521C6.48416 10.6348 6.48709 10.7472 6.46077 10.8596C6.44177 10.9439 6.47685 11.0075 6.53972 11.0593C6.58358 11.0401 6.6172 11.0179 6.65522 11.012C6.69761 11.0061 6.74293 11.043 6.79264 10.9987C6.77217 10.9661 6.74878 10.9336 6.73416 10.8981C6.72247 10.8715 6.71662 10.8389 6.75317 10.8197C6.8058 10.8123 6.83358 10.8907 6.89205 10.8611C6.93153 10.8301 6.90229 10.7398 6.99439 10.7458C6.98708 10.7857 6.98124 10.8227 6.97393 10.8656C7.02363 10.8907 7.06749 10.9129 7.11574 10.9366C7.12743 10.9232 7.13474 10.9055 7.1479 10.8996C7.18153 10.8833 7.21807 10.8715 7.2634 10.8552C7.22246 10.7857 7.17568 10.7251 7.14936 10.6555C7.12305 10.5875 7.12451 10.5106 7.13474 10.4278C7.16398 10.4707 7.18884 10.5017 7.20638 10.5372C7.22685 10.5772 7.24147 10.6215 7.25901 10.6629C7.27217 10.691 7.30725 10.691 7.33357 10.6629C7.34527 10.6511 7.33942 10.6215 7.37158 10.6304C7.38766 10.6703 7.36573 10.697 7.34234 10.7265C7.32772 10.7458 7.30433 10.7753 7.31018 10.7901C7.33065 10.8463 7.28971 10.8892 7.2824 10.9351C7.29848 10.9972 7.35258 11.0416 7.34088 11.1096C7.33065 11.1658 7.38328 11.2294 7.32041 11.2782C7.30579 11.2176 7.29556 11.1584 7.27509 11.1022C7.25755 11.0549 7.21954 11.0253 7.16544 11.0416C7.09088 11.0637 7.02509 11.0519 6.96515 11.0016C6.95638 10.9942 6.93738 10.9987 6.92276 10.9972C6.89936 11.0726 6.87159 11.1436 6.85551 11.2176C6.84673 11.256 6.8482 11.3019 6.86281 11.3374C6.88767 11.398 6.87743 11.4468 6.84235 11.4971C6.80141 11.5548 6.78094 11.6154 6.8058 11.6864C6.81165 11.7041 6.81018 11.7308 6.80141 11.7456C6.75902 11.8195 6.77802 11.8964 6.78972 11.9718C6.79703 12.0221 6.80726 12.0724 6.81603 12.1271C6.78241 12.1316 6.75463 12.136 6.72393 12.139C6.70931 12.2129 6.69469 12.2839 6.68007 12.3534C6.6713 12.3963 6.69323 12.4214 6.72539 12.4422C6.73124 12.4466 6.73416 12.4584 6.73855 12.4673C6.71516 12.4969 6.6903 12.5279 6.66983 12.5546C6.63182 12.5457 6.62451 12.4954 6.57773 12.522C6.56019 12.5856 6.54703 12.6551 6.55434 12.7439C6.57334 12.7601 6.60697 12.7779 6.62598 12.806C6.66837 12.8666 6.70346 12.9421 6.66253 13.0071C6.61136 13.0885 6.60697 13.2127 6.48563 13.2408C6.48124 13.2408 6.47685 13.2482 6.47685 13.2526C6.47685 13.2719 6.47101 13.2926 6.47685 13.3103C6.47978 13.3192 6.50171 13.3281 6.51487 13.3281C6.53533 13.3281 6.55434 13.3148 6.57334 13.3148C6.59235 13.3148 6.61428 13.3221 6.62744 13.334C6.66545 13.3724 6.68592 13.4168 6.65814 13.4804C6.62598 13.4553 6.59674 13.4316 6.56603 13.4079C6.54849 13.4227 6.52949 13.4331 6.52802 13.4434C6.52364 13.5277 6.55141 13.6046 6.60258 13.6712C6.62159 13.6949 6.66691 13.6904 6.68007 13.6594C6.70785 13.5928 6.79118 13.5603 6.77802 13.4686C6.77363 13.4375 6.86574 13.3562 6.92568 13.3221C6.93445 13.3576 6.94322 13.3917 6.952 13.4257C6.97393 13.5115 6.98562 13.5928 6.95638 13.6815C6.93445 13.7466 6.93299 13.8265 6.94615 13.896C6.96223 13.9833 6.95784 14.0705 6.95931 14.1563C6.95931 14.2184 6.96808 14.2643 7.01778 14.3042C7.03825 14.3205 7.04702 14.3545 7.05726 14.3826C7.06895 14.4151 7.0748 14.4506 7.08065 14.4772C7.15521 14.5201 7.25755 14.5112 7.26632 14.6222C7.25609 14.6296 7.24878 14.6399 7.24 14.6399C7.15667 14.6429 7.09235 14.6103 7.04995 14.5349C7.03533 14.5083 7.02363 14.4787 7.00609 14.4536C6.971 14.4033 6.94469 14.4003 6.85404 14.4373C6.92129 14.5467 6.93153 14.6651 6.89205 14.7878C6.81165 14.8292 6.79264 14.8573 6.82334 14.9268C6.8555 14.9964 6.8979 15.0614 6.94322 15.1235C6.97392 15.1664 7.00463 15.2034 6.98562 15.2626C6.97977 15.2803 6.99732 15.3099 7.01047 15.3291C7.02509 15.3498 7.04702 15.3661 7.06603 15.3809C7.09673 15.4046 7.12743 15.4489 7.17129 15.4149C7.20638 15.3883 7.18445 15.3498 7.17129 15.3158C7.15813 15.2774 7.16252 15.2448 7.21076 15.2226C7.28094 15.2803 7.37451 15.3158 7.41836 15.409C7.40813 15.4415 7.39936 15.4696 7.39059 15.4992C7.41398 15.5199 7.43298 15.5362 7.45053 15.5539C7.46661 15.5717 7.48123 15.5924 7.49731 15.6131C7.46222 15.6767 7.42567 15.7285 7.43591 15.8039C7.44614 15.8837 7.51485 15.9059 7.53532 15.9355C7.54848 16.0834 7.56018 16.2062 7.57041 16.3289C7.57333 16.36 7.57333 16.391 7.57041 16.4221C7.56749 16.5153 7.5631 16.607 7.55725 16.7001C7.55725 16.7194 7.5631 16.743 7.52363 16.7489C7.50608 16.7253 7.48269 16.7001 7.46515 16.672C7.41106 16.5848 7.35989 16.496 7.30579 16.4088C7.29117 16.3836 7.26193 16.3733 7.24 16.3866C7.221 16.3984 7.20345 16.4236 7.20053 16.4458C7.19615 16.4694 7.20784 16.496 7.21369 16.5212C7.22831 16.5966 7.24147 16.672 7.25901 16.7475C7.28094 16.8421 7.30726 16.9368 7.33211 17.0314C7.34527 17.0832 7.37304 17.1305 7.41983 17.1542C7.48123 17.1852 7.50316 17.2385 7.52801 17.2962C7.64643 17.5698 7.76778 17.8434 7.88912 18.1155C7.9052 18.1525 7.92859 18.1895 7.93737 18.2294C7.96514 18.3433 7.97538 18.4542 7.87742 18.5444C7.85111 18.5681 7.82918 18.5992 7.81017 18.6287C7.77655 18.6805 7.79555 18.7219 7.85988 18.7426C7.88181 18.75 7.91397 18.7397 7.91105 18.7811C7.8745 18.8284 7.81602 18.8373 7.76485 18.858C7.73123 18.8713 7.69614 18.8772 7.66398 18.8935C7.64936 18.9009 7.63328 18.926 7.63474 18.9408C7.6362 18.9571 7.65667 18.9807 7.67129 18.9837C7.70491 18.9896 7.74146 18.9896 7.77509 18.9807C7.80871 18.9719 7.83941 18.9511 7.87304 18.9364C7.91251 18.9186 7.95052 18.9171 7.98853 18.9467C8.00315 18.9585 8.02362 18.9645 8.03824 18.9733C8.08941 18.9378 8.13035 18.8994 8.18005 18.8772C8.22976 18.855 8.29116 18.8609 8.33648 18.8166C8.34379 18.7796 8.35256 18.7426 8.36134 18.7027C8.41689 18.716 8.43005 18.7544 8.43736 18.7973C8.44905 18.8698 8.42128 18.9112 8.34964 18.9053C8.27216 18.8994 8.21075 18.9275 8.15081 18.9689C8.13327 18.9807 8.11573 18.9896 8.09818 19.0014C7.99438 19.0695 7.88766 19.105 7.76924 19.0354C7.71661 19.0044 7.65813 19.0147 7.60842 19.0458C7.48708 19.1227 7.3555 19.1745 7.221 19.2218C7.05287 19.281 6.89059 19.3593 6.7444 19.4644C6.68592 19.5058 6.6289 19.5516 6.58504 19.6063C6.52802 19.6773 6.46808 19.7335 6.37159 19.738C6.35259 19.738 6.33358 19.7528 6.31458 19.7602C6.22978 19.7986 6.15376 19.8474 6.09674 19.9243C6.03972 20.0012 5.97247 20.0574 5.86867 20.0589C5.83066 20.0589 5.79119 20.0811 5.75464 20.0974C5.66107 20.1402 5.5792 20.2009 5.50172 20.2689C5.46371 20.3029 5.42131 20.331 5.37745 20.3547C5.32336 20.3828 5.26634 20.4035 5.20932 20.4272C5.19324 20.4331 5.17424 20.4346 5.14792 20.4405C5.16839 20.3532 5.22541 20.2763 5.15377 20.2024C5.02658 20.2837 5.02512 20.2867 4.98418 20.4109C4.97833 20.4301 4.9681 20.4479 4.9564 20.4641C4.92278 20.51 4.89061 20.5558 4.8526 20.5973C4.80143 20.6535 4.74442 20.7067 4.68886 20.7585C4.67717 20.7688 4.6567 20.7703 4.63038 20.7792C4.63477 20.7511 4.63331 20.7363 4.63916 20.723C4.67132 20.6327 4.73272 20.5647 4.79997 20.4996C4.82921 20.4715 4.86138 20.442 4.86138 20.3961C4.86138 20.3769 4.85699 20.3517 4.84383 20.3414C4.83214 20.331 4.80436 20.3251 4.78828 20.331C4.75611 20.3443 4.72541 20.3651 4.69763 20.3858C4.56313 20.4893 4.43009 20.5928 4.29852 20.6978C4.25466 20.7333 4.21226 20.7718 4.17279 20.8117C4.11138 20.8738 4.05583 20.9404 3.96519 20.9626C3.94179 20.9685 3.92133 20.9877 3.90232 21.0055C3.72396 21.1667 3.53537 21.319 3.37309 21.495C3.16695 21.7183 2.94912 21.9254 2.71812 22.1206C2.70204 22.1339 2.68742 22.1472 2.6728 22.162C2.51491 22.301 2.35848 22.4415 2.19912 22.5776C2.11287 22.6501 2.01784 22.7107 1.93012 22.7802C1.83802 22.8527 1.74737 22.9296 1.65527 23.0036C1.5427 23.0938 1.43744 23.1899 1.34241 23.2979C1.26054 23.3896 1.17136 23.4739 1.0851 23.5611C0.973991 23.6735 0.852647 23.78 0.753233 23.9028C0.643585 24.0374 0.558791 24.1912 0.437447 24.3184C0.414055 24.3435 0.393588 24.3775 0.383354 24.4101C0.3585 24.4988 0.297098 24.558 0.238619 24.623C0.152362 24.7177 0.0807258 24.8242 0.00470321 24.9277C-0.00406863 24.9395 0.000317289 24.9706 0.0105511 24.9839C0.0207849 24.9957 0.0485624 25.0031 0.0646441 24.9987C0.134819 24.9795 0.200607 24.9469 0.247391 24.8907C0.357039 24.7606 0.49154 24.6585 0.611422 24.5402C0.624579 24.5284 0.636275 24.5047 0.665515 24.5299C0.640661 24.5964 0.586568 24.6452 0.548557 24.7044C0.507622 24.7665 0.514932 24.7842 0.599726 24.8316C0.631889 24.7828 0.674286 24.7576 0.737151 24.7576C0.814636 24.7576 0.871653 24.7162 0.89943 24.6393C0.92136 24.5772 0.962295 24.5358 1.03101 24.5239C1.05879 24.5195 1.08364 24.4944 1.10557 24.4737C1.18598 24.3968 1.26492 24.3169 1.35557 24.2267C1.50322 24.2666 1.6041 24.1468 1.72837 24.0817C1.74153 24.0388 1.75615 23.9974 1.77077 23.9486C1.85848 23.9575 1.92866 23.9264 1.9769 23.8614C2.01199 23.814 2.06316 23.8466 2.10263 23.8303C2.15234 23.7549 2.17866 23.6513 2.30146 23.6661C2.33363 23.6957 2.36579 23.7253 2.40234 23.7593C2.37164 23.8096 2.3424 23.8554 2.31316 23.9013C2.34971 23.9338 2.37602 23.9176 2.39941 23.8969C2.49737 23.8066 2.59239 23.7135 2.69181 23.6232C2.72543 23.5922 2.76052 23.5567 2.80146 23.5449C2.85116 23.5315 2.88186 23.5079 2.90672 23.465C2.93742 23.4118 2.98274 23.3851 3.04414 23.3822C3.06315 23.3822 3.08215 23.3718 3.10701 23.3644C3.12163 23.2875 3.15233 23.2165 3.20642 23.1633C3.29268 23.079 3.37163 22.9784 3.51051 22.9799C3.58215 22.9799 3.62308 22.9429 3.64063 22.8749C3.64794 22.8497 3.66548 22.8276 3.68156 22.7965C3.69472 22.8261 3.70349 22.8438 3.71227 22.8645C3.78536 22.8409 3.857 22.8172 3.9301 22.7935C3.93887 22.758 3.94764 22.724 3.95641 22.6885C4.00612 22.6737 4.0529 22.6649 4.08799 22.619C4.13477 22.5554 4.19618 22.5288 4.2839 22.5273C4.36577 22.5273 4.45056 22.48 4.51196 22.4164C4.53974 22.3883 4.55728 22.3691 4.59822 22.3735C4.62015 22.375 4.64939 22.3617 4.66401 22.3454C4.69617 22.3114 4.73126 22.3055 4.77366 22.307C4.87015 22.307 4.94763 22.2626 5.01488 22.2005C5.00903 22.165 5.00319 22.1354 4.99734 22.1073C5.06605 22.0969 5.13476 22.0955 5.1947 22.0733C5.25318 22.0511 5.30435 22.0067 5.35552 21.9742C5.40669 21.9993 5.45494 22.0407 5.5061 22.0437C5.61721 22.0496 5.72686 22.0333 5.81312 21.949C5.80435 21.9165 5.7985 21.8884 5.78827 21.8499C5.82481 21.8499 5.85698 21.8426 5.88329 21.8499C5.98417 21.884 6.0792 21.9239 6.19177 21.8869C6.24586 21.8692 6.31165 21.884 6.37305 21.884C6.38621 21.8618 6.39352 21.8411 6.40668 21.8278C6.47539 21.7686 6.51779 21.6976 6.52949 21.6059C6.52949 21.597 6.54995 21.5896 6.56896 21.5763C6.58212 21.6695 6.62305 21.7375 6.71223 21.7745C6.74878 21.7479 6.78387 21.7198 6.82042 21.6932C6.85989 21.6651 6.90083 21.6503 6.94761 21.6784C6.96369 21.6873 6.98562 21.6873 7.00463 21.6902C7.02071 21.671 7.04118 21.6577 7.04556 21.6385C7.07772 21.5364 7.15813 21.5009 7.2517 21.4802C7.29702 21.4713 7.3438 21.4625 7.38328 21.4403C7.42421 21.4166 7.45784 21.3782 7.49585 21.3441C7.5748 21.3959 7.6245 21.4891 7.73269 21.4817C7.79848 21.4137 7.84965 21.3249 7.94467 21.2953C8.13766 21.3722 8.16251 21.3648 8.21806 21.2169C8.26192 21.2199 8.31309 21.2391 8.34818 21.2243C8.40666 21.1977 8.46221 21.1918 8.52508 21.1962C8.6011 21.2007 8.66104 21.1681 8.69174 21.0883C8.7049 21.0513 8.73414 21.0173 8.76192 20.9892C8.778 20.9729 8.8087 20.9596 8.83063 20.9626C8.89496 20.9714 8.96513 20.9685 9.00314 21.0409C9.0163 21.0646 9.047 21.0794 9.07186 21.1001C9.11279 21.0676 9.14788 21.0395 9.18004 21.0128C9.18881 21.0114 9.19466 21.0084 9.19905 21.0099C9.41249 21.0232 9.62741 21.035 9.835 20.9596C9.85401 20.9537 9.87594 20.9537 9.89495 20.9566C9.95489 20.9655 10.0031 20.9256 10.0558 20.9197C10.1084 20.9138 10.1639 20.9359 10.2195 20.9433C10.2341 20.9448 10.2502 20.9404 10.2648 20.9359C10.3906 20.8975 10.528 20.9049 10.6464 20.8339C10.6742 20.8176 10.7166 20.8176 10.7517 20.8191C10.8935 20.825 11.0236 20.791 11.1493 20.7244C11.1727 20.7111 11.2049 20.7126 11.2356 20.7067C11.2458 20.7452 11.2502 20.7777 11.2634 20.8043C11.2809 20.8398 11.2984 20.8871 11.3291 20.9034C11.4037 20.9433 11.4388 21.0069 11.4739 21.0764C11.5075 21.143 11.5528 21.1962 11.6318 21.211C11.6873 21.2229 11.7195 21.2613 11.737 21.3131C11.7867 21.4713 11.9285 21.5497 12.0294 21.6621C12.1201 21.6902 12.1595 21.7671 12.2063 21.8426C12.2955 21.9831 12.4154 22.0925 12.5674 22.162C12.5806 22.1679 12.5981 22.1753 12.604 22.1872C12.6361 22.2508 12.6961 22.2626 12.7429 22.2715C12.8525 22.4549 12.9987 22.5584 13.2151 22.5776C13.2663 22.6338 13.3233 22.6989 13.3818 22.7625C13.4227 22.8069 13.4797 22.8054 13.5104 22.7536C13.5367 22.7107 13.5557 22.6634 13.5747 22.6205C13.5528 22.5909 13.5353 22.5687 13.5133 22.5392C13.5689 22.5288 13.6186 22.5214 13.6522 22.5584C13.6771 22.585 13.6873 22.6279 13.7048 22.6619C13.7282 22.6634 13.7516 22.6649 13.7706 22.6663C13.7984 22.7551 13.7882 22.835 13.7765 22.9148C13.8408 22.9385 13.8964 22.9592 13.949 22.9784C13.9734 23.0948 14.0333 23.1648 14.1288 23.1884C14.1814 23.1825 14.1873 23.0938 14.2619 23.1234C14.2648 23.1455 14.2662 23.1707 14.2721 23.1943C14.2765 23.2136 14.2867 23.2431 14.2969 23.2461C14.3613 23.2565 14.3583 23.3393 14.411 23.3556C14.4724 23.3363 14.5133 23.3008 14.5469 23.2535C14.5776 23.2121 14.6127 23.1751 14.6507 23.1411C14.6873 23.1071 14.7282 23.116 14.7502 23.1618C14.7589 23.181 14.7677 23.2003 14.7721 23.2195C14.7867 23.3023 14.8291 23.3541 14.9051 23.394C14.9724 23.428 15.025 23.4961 15.1025 23.5064C15.1902 23.5182 15.2326 23.5567 15.2209 23.6484C15.2209 23.6528 15.2209 23.6587 15.2209 23.6632C15.2297 23.7179 15.2618 23.749 15.3159 23.7386C15.3598 23.7312 15.4007 23.7105 15.4431 23.6942C15.4694 23.78 15.5231 23.8121 15.6039 23.7904C15.6113 23.7889 15.6215 23.7963 15.6098 23.7904C15.639 23.814 15.6507 23.8303 15.6654 23.8333C15.6814 23.8377 15.7107 23.8214 15.718 23.8303C15.7721 23.8865 15.8393 23.9013 15.9124 23.9057C15.9694 23.9102 16.0206 23.925 16.0528 23.9826C16.0806 24.03 16.1273 24.0492 16.177 24.0374C16.2209 23.9886 16.2107 23.9353 16.2151 23.8835C16.2224 23.8007 16.2472 23.7845 16.3232 23.8081C16.3817 23.8259 16.4417 23.8377 16.5001 23.8525C16.5279 23.8599 16.5572 23.8688 16.5879 23.8776C16.5981 23.9678 16.6083 24.0522 16.6186 24.1438H16.7896C16.8028 24.1823 16.8145 24.2134 16.8262 24.2459C16.8949 24.2089 16.8963 24.2104 16.9212 24.1675C16.9417 24.1305 16.965 24.098 17.006 24.0832C17.0557 24.064 17.1039 24.0876 17.1069 24.1409C17.1098 24.1808 17.1025 24.2222 17.101 24.2636C17.101 24.2829 17.101 24.3051 17.1069 24.3228C17.1171 24.3568 17.1712 24.3657 17.199 24.3376C17.2004 24.3021 17.2033 24.2622 17.2048 24.2267C17.2886 24.1862 17.3651 24.1734 17.4343 24.1882C17.3919 24.2163 17.3495 24.2415 17.3101 24.2725C17.2867 24.2917 17.2662 24.3198 17.2852 24.3539C17.3042 24.3879 17.3335 24.3834 17.3656 24.3746C17.4782 24.3391 17.503 24.3213 17.5805 24.2134C17.6142 24.274 17.6317 24.3346 17.6361 24.4012C17.6376 24.4234 17.6551 24.4426 17.6683 24.4692C17.7282 24.4352 17.7896 24.4234 17.832 24.3657C17.8115 24.3361 17.7925 24.3095 17.7662 24.2725C17.7969 24.2607 17.8261 24.24 17.8408 24.2474C17.8656 24.2592 17.8846 24.2873 17.8978 24.3125C17.9066 24.3287 17.9007 24.3524 17.8978 24.3731C17.8934 24.4027 17.8846 24.4308 17.8759 24.4663C17.9139 24.4825 17.9446 24.4958 17.9782 24.5077C17.987 24.5106 18.003 24.5121 18.0074 24.5077C18.0279 24.487 18.044 24.4618 18.0659 24.4396C18.0761 24.4293 18.0922 24.4219 18.1054 24.4219C18.1726 24.4263 18.2048 24.3775 18.2384 24.3317C18.253 24.311 18.2589 24.2844 18.2735 24.2636C18.2837 24.2489 18.3013 24.2415 18.3174 24.2281C18.3495 24.306 18.391 24.3632 18.4416 24.3997C18.4051 24.4278 18.3671 24.453 18.3335 24.4825C18.3086 24.5047 18.2998 24.5373 18.3174 24.5668C18.3276 24.5861 18.3495 24.5979 18.3729 24.6186C18.4329 24.5417 18.487 24.4737 18.5396 24.4056C18.5206 24.376 18.5045 24.3568 18.4928 24.3346C18.4782 24.308 18.468 24.2799 18.4533 24.2459C18.4957 24.2252 18.5308 24.2089 18.5674 24.1927C18.5703 24.1927 18.5791 24.1927 18.5805 24.1971C18.6317 24.2873 18.6536 24.376 18.5659 24.4604C18.563 24.4633 18.5586 24.4677 18.5571 24.4722C18.544 24.5032 18.5484 24.5328 18.5732 24.5565C18.5937 24.5757 18.6156 24.5787 18.6419 24.5654C18.6931 24.5373 18.7443 24.5121 18.7954 24.487C18.7925 24.5166 18.7867 24.5461 18.7896 24.5742C18.791 24.592 18.8027 24.6156 18.8174 24.623C18.832 24.6304 18.8583 24.6275 18.8744 24.6186C18.9124 24.5964 18.9299 24.5432 18.984 24.5476C19.0191 24.6792 19.0425 24.6896 19.1595 24.6319C19.1726 24.6245 19.1858 24.6171 19.2004 24.6097C19.3115 24.558 19.3349 24.5624 19.4285 24.6526C19.4387 24.663 19.4489 24.6763 19.4592 24.6866C19.4899 24.7133 19.5308 24.7088 19.5513 24.6748C19.6039 24.592 19.5981 24.5476 19.5235 24.4633C19.56 24.4559 19.5981 24.4485 19.6405 24.4411C19.6361 24.3864 19.6331 24.342 19.6302 24.2932C19.6463 24.2814 19.6624 24.2681 19.6785 24.2563C19.7501 24.203 19.8086 24.2503 19.8247 24.3243C19.8305 24.3494 19.8305 24.376 19.8334 24.4012C19.8364 24.4263 19.8393 24.4515 19.8451 24.4766C19.851 24.4988 19.889 24.5018 19.8773 24.5402C19.7545 24.5506 19.7647 24.6718 19.7019 24.7428C19.7691 24.7931 19.832 24.8331 19.9036 24.8301C19.9636 24.8286 20.022 24.8094 20.0849 24.8168C20.1624 24.8257 20.1858 24.7369 20.2486 24.7147C20.2574 24.7118 20.2676 24.7118 20.2793 24.7103C20.2925 24.7251 20.3042 24.7414 20.3203 24.7547C20.37 24.7961 20.3904 24.7931 20.4328 24.7414C20.4445 24.728 20.4548 24.7118 20.4592 24.7059C20.5527 24.7118 20.5425 24.8094 20.598 24.8449C20.6755 24.7931 20.6828 24.7133 20.7048 24.6423C20.7238 24.6378 20.7384 24.6334 20.753 24.6334C20.7676 24.6334 20.7823 24.6408 20.8013 24.6452C20.7969 24.6674 20.7939 24.6866 20.7866 24.7059C20.7749 24.7399 20.7574 24.7724 20.7472 24.8064C20.7384 24.8331 20.7486 24.8582 20.7749 24.87C20.8013 24.8833 20.8247 24.873 20.8422 24.8508C20.8539 24.8345 20.8612 24.8168 20.8714 24.799C21.0103 24.8759 21.0352 24.8804 21.2194 24.8789C21.2501 24.8508 21.2749 24.8109 21.31 24.8005C21.3437 24.7902 21.3875 24.8079 21.4416 24.8168C21.4621 24.7384 21.5293 24.7251 21.5995 24.7029C21.6638 24.6822 21.7208 24.6541 21.7881 24.6822C21.7969 24.6852 21.8086 24.6822 21.8173 24.6792C21.8846 24.6704 21.9197 24.6053 21.8743 24.5565C21.8159 24.4914 21.8188 24.416 21.8086 24.3406C21.8042 24.311 21.8027 24.2799 21.8012 24.2489C21.8012 24.2415 21.8086 24.2341 21.8129 24.2252C21.8451 24.2563 21.8773 24.2873 21.9182 24.3287C21.9869 24.2518 22.0732 24.2518 22.1624 24.2563C22.1828 24.2563 22.2062 24.2592 22.2223 24.2503C22.3115 24.2015 22.367 24.2577 22.4211 24.3139C22.4445 24.3391 22.4445 24.3701 22.4007 24.3982C22.3495 24.3849 22.2881 24.3746 22.2311 24.3539C22.1492 24.3258 22.0703 24.3391 21.9898 24.3553C21.9577 24.3613 21.9372 24.3908 21.9474 24.4249C21.9621 24.4722 21.9855 24.5166 22.0088 24.5713C21.9913 24.6009 21.9679 24.6393 21.946 24.6748C21.9664 24.7211 21.9957 24.7586 22.0337 24.7872C22.0542 24.7517 22.0703 24.7133 22.0951 24.6837C22.1229 24.6497 22.1594 24.6216 22.1931 24.5905C22.1857 24.5624 22.1799 24.5343 22.1726 24.5047C22.272 24.4855 22.3012 24.5047 22.2925 24.5801C22.2895 24.6053 22.2793 24.6304 22.2749 24.6556C22.2662 24.7103 22.3071 24.7621 22.367 24.7783C22.4065 24.7887 22.4474 24.7532 22.4591 24.6955C22.4664 24.6571 22.4708 24.6171 22.4767 24.5742C22.5761 24.6127 22.579 24.6112 22.5995 24.6778C22.6229 24.7532 22.6697 24.7976 22.7471 24.8242C22.7705 24.7916 22.7954 24.765 22.8115 24.734C22.8349 24.6881 22.8276 24.6526 22.791 24.6245C22.7559 24.5964 22.7384 24.6393 22.7121 24.6467C22.7077 24.6467 22.7018 24.6467 22.6857 24.6437C22.6653 24.5654 22.639 24.4825 22.6214 24.3982C22.6097 24.3391 22.6492 24.3065 22.7135 24.3125C22.7428 24.3154 22.7735 24.3169 22.8027 24.3169C22.8539 24.3169 22.8802 24.3317 22.8919 24.3775C22.9021 24.413 22.886 24.4352 22.8539 24.45C22.8319 24.4603 22.8144 24.4796 22.7895 24.4988C22.8042 24.521 22.8115 24.5461 22.8261 24.552C22.8963 24.5801 22.9694 24.6053 23.0483 24.6023C23.079 24.6023 23.1097 24.5964 23.1404 24.5994C23.2106 24.6053 23.2471 24.6541 23.2369 24.7266C23.2325 24.7576 23.2223 24.7872 23.2223 24.8168C23.2223 24.8478 23.2354 24.8789 23.2837 24.8759C23.3319 24.8404 23.3816 24.7976 23.4153 24.7458C23.4036 24.7118 23.3933 24.6837 23.3846 24.66C23.4021 24.6467 23.4109 24.6349 23.4182 24.6363C23.503 24.6497 23.5892 24.6659 23.6755 24.6822C23.7091 24.6511 23.7267 24.6112 23.7281 24.5624C23.7281 24.5343 23.7354 24.5047 23.7398 24.4663C23.8232 24.4692 23.8992 24.4722 23.9752 24.4737C24.0001 24.4737 24.0264 24.4766 24.0512 24.4722C24.0629 24.4692 24.079 24.4544 24.0819 24.4426C24.0848 24.4323 24.0761 24.4086 24.0688 24.4056C24.0103 24.3849 23.9591 24.3553 23.9123 24.3139C23.8875 24.2932 23.8465 24.2873 23.8129 24.2844C23.7734 24.2799 23.7311 24.2844 23.6916 24.2844C23.6799 24.2844 23.6696 24.2696 23.658 24.2607C23.6696 24.2518 23.6799 24.24 23.6843 24.2415C23.7588 24.274 23.8217 24.2444 23.8816 24.203C23.9109 24.1838 23.9196 24.1557 23.8992 24.1231C23.8904 24.1098 23.8772 24.101 23.8699 24.0876C23.867 24.0817 23.8699 24.0669 23.8758 24.061C23.8816 24.0551 23.8977 24.0492 23.9021 24.0522C23.9328 24.0773 23.9679 24.101 23.9913 24.132C24.0527 24.2148 24.117 24.2947 24.212 24.3258C24.1755 24.3982 24.1419 24.4648 24.0995 24.552C24.0936 24.5565 24.0658 24.5698 24.0425 24.589C23.9927 24.626 23.9971 24.6955 24.0556 24.7073C24.1243 24.7206 24.1579 24.7665 24.1974 24.8123C24.2018 24.8183 24.2164 24.8168 24.2325 24.8212C24.2778 24.7828 24.3085 24.734 24.3173 24.6689C24.3217 24.6304 24.3465 24.6186 24.3889 24.623C24.4226 24.66 24.4606 24.6999 24.4957 24.7369C24.4708 24.765 24.4518 24.7872 24.4255 24.8153C24.4562 24.839 24.4825 24.8552 24.5015 24.8774C24.5249 24.904 24.5381 24.9381 24.56 24.9647C24.5658 24.9721 24.5878 24.9676 24.6068 24.9691C24.6141 24.9366 24.6272 24.907 24.6258 24.8789C24.6199 24.7931 24.6579 24.731 24.7237 24.6822C24.7296 24.6778 24.7281 24.663 24.7296 24.6511C24.7179 24.6437 24.7062 24.6334 24.693 24.6275C24.6799 24.6201 24.6638 24.6186 24.6506 24.6112C24.6155 24.5905 24.6112 24.5447 24.6433 24.5225C24.674 24.5003 24.7091 24.4811 24.7369 24.4648C24.734 24.4027 24.6521 24.3598 24.7296 24.3021C24.7647 24.3095 24.8041 24.3184 24.848 24.3272C24.8729 24.2991 24.8933 24.271 24.9182 24.2474C24.943 24.2237 24.9913 24.2237 25.0161 24.2459C25.041 24.2666 25.0322 24.2917 25.022 24.3154C25.0147 24.3332 25.0074 24.3524 25.0015 24.3657C24.8129 24.416 24.8129 24.3716 24.8027 24.5949C24.8012 24.6304 24.8027 24.6659 24.8027 24.6999C24.8436 24.7369 24.8875 24.7665 24.9182 24.8064C24.9474 24.8449 24.9606 24.8937 24.9825 24.9395C24.9971 24.941 25.0117 24.9455 25.0264 24.944C25.0673 24.941 25.117 24.9455 25.1316 24.8996C25.1492 24.8464 25.0965 24.8345 25.0644 24.8138C25.0512 24.805 25.0424 24.7931 25.0439 24.7961C25.0132 24.7088 24.9898 24.6378 24.965 24.5668C24.9883 24.5417 25.0132 24.5491 25.0249 24.5757C25.0395 24.6082 25.0424 24.6452 25.0541 24.6778C25.0688 24.7192 25.0965 24.728 25.1667 24.7147C25.1579 24.6748 25.1477 24.6334 25.136 24.5861C25.1828 24.5816 25.2179 24.5816 25.2515 24.5728C25.2676 24.5683 25.2895 24.5506 25.291 24.5373C25.2924 24.5225 25.2778 24.5018 25.2647 24.487C25.2544 24.4766 25.2354 24.4751 25.2237 24.4663C25.1872 24.4382 25.1828 24.3879 25.2164 24.3613C25.2471 24.3361 25.2837 24.3169 25.3158 24.2962C25.3451 24.3287 25.3626 24.3657 25.3904 24.3775C25.424 24.3908 25.465 24.3834 25.5044 24.3864C25.5073 24.4677 25.443 24.5491 25.5293 24.6053C25.5673 24.6053 25.6038 24.6068 25.6389 24.6053C25.7325 24.5994 25.7442 24.5742 25.7033 24.4929C25.693 24.4722 25.6886 24.4485 25.6799 24.4219C25.734 24.4101 25.7778 24.4027 25.8173 24.4441C25.8056 24.484 25.7924 24.5225 25.7851 24.5624C25.7793 24.5979 25.81 24.6319 25.848 24.6363C25.9065 24.6437 25.9416 24.6156 25.9503 24.552C25.9532 24.5299 25.9342 24.5003 25.9796 24.4885C25.9898 24.5151 25.9971 24.5432 26.0132 24.5668C26.0263 24.5875 26.0439 24.6127 26.0658 24.6201C26.1725 24.6526 26.2807 24.6718 26.4021 24.6423C26.3699 24.4944 26.4752 24.416 26.5453 24.3302C26.5585 24.2563 26.5146 24.1897 26.5541 24.1261C26.6462 24.1572 26.6506 24.1646 26.6433 24.2355C26.6375 24.2917 26.6345 24.3479 26.6375 24.4041C26.6389 24.4367 26.6652 24.4604 26.6989 24.4618C26.7281 24.4618 26.7413 24.4396 26.75 24.413C26.7544 24.3982 26.7573 24.382 26.7676 24.3701C26.7866 24.3479 26.8085 24.3243 26.8509 24.3479C26.8451 24.3657 26.8407 24.3834 26.8334 24.4012C26.8231 24.4308 26.8056 24.4589 26.8027 24.4885C26.8012 24.5092 26.8129 24.5417 26.829 24.552C26.8451 24.5624 26.8787 24.558 26.8977 24.5476C26.9182 24.5358 26.9284 24.5077 26.9445 24.4885C26.9737 24.453 27.0029 24.4175 27.0366 24.3864C27.0673 24.3583 27.1067 24.3657 27.1272 24.3997C27.1565 24.447 27.1842 24.4958 27.212 24.5461C27.212 24.5491 27.212 24.555 27.212 24.5594C27.2062 24.5964 27.1652 24.6349 27.2105 24.6718C27.2369 24.694 27.3143 24.6763 27.3509 24.6423C27.3582 24.6349 27.367 24.626 27.3684 24.6171C27.3743 24.5713 27.4065 24.5654 27.443 24.5565C27.4825 24.5476 27.5176 24.5254 27.5541 24.5077C27.5907 24.4899 27.6257 24.4707 27.6623 24.4515C27.6769 24.484 27.6901 24.5092 27.7047 24.5387H28.0249C28.0497 24.5092 28.0731 24.4825 28.1009 24.45C28.136 24.4796 28.1652 24.5077 28.1974 24.5299C28.2222 24.5476 28.25 24.5624 28.2778 24.5698C28.2939 24.5742 28.3158 24.5609 28.3348 24.5565C28.329 24.5387 28.3275 24.518 28.3173 24.5047C28.3026 24.487 28.2807 24.4766 28.2617 24.4618C28.3494 24.4737 28.4342 24.4663 28.5132 24.518C28.5643 24.5506 28.6404 24.5609 28.7032 24.5565C28.7646 24.552 28.8231 24.5461 28.8845 24.5565C28.9444 24.5654 28.9795 24.5343 28.9942 24.4737C28.9985 24.4544 29 24.4322 29 24.413C29 24.3746 28.9635 24.345 28.9254 24.3568L28.9371 24.3539ZM6.16984 5.09458C6.16399 5.08719 6.16253 5.07683 6.15814 5.06796C6.16692 5.065 6.17423 5.06204 6.183 5.05909C6.18592 5.06796 6.18738 5.07831 6.19031 5.08719C6.183 5.09014 6.1713 5.09606 6.16984 5.09458ZM6.33797 6.39165C6.3365 6.41679 6.3058 6.4375 6.28095 6.47003C6.26194 6.44489 6.25463 6.43897 6.25025 6.4301C6.21662 6.3384 6.24732 6.25114 6.27072 6.16388C6.27364 6.15353 6.29265 6.14022 6.3058 6.14022C6.31604 6.14022 6.33651 6.15501 6.33651 6.16536C6.33943 6.24079 6.34382 6.31622 6.33651 6.39165H6.33797ZM6.39645 3.89365C6.37744 3.87294 6.35551 3.85963 6.35112 3.84188C6.34235 3.80343 6.34235 3.76054 6.33943 3.72061C6.3292 3.59933 6.32627 3.47806 6.27218 3.36565C6.25756 3.32868 6.24294 3.2917 6.22978 3.25473C6.22247 3.23107 6.2137 3.20592 6.23709 3.18374C6.27803 3.23994 6.28241 3.30058 6.27218 3.36565C6.33212 3.42038 6.37452 3.48101 6.37598 3.56827C6.37598 3.61856 6.39352 3.66884 6.40229 3.71765C6.41253 3.77237 6.42715 3.82709 6.39645 3.89365ZM6.47539 4.256C6.46077 4.20276 6.46516 4.14803 6.4827 4.08887C6.55872 4.18353 6.56457 4.22198 6.52364 4.32403C6.48709 4.31664 6.4827 4.28262 6.47539 4.256ZM6.57188 9.76224C6.55288 9.709 6.57188 9.67055 6.61428 9.6454C6.64498 9.62766 6.67861 9.62174 6.70931 9.67202C6.6596 9.70456 6.61574 9.73266 6.57188 9.76077V9.76224ZM6.71077 5.11381C6.70638 5.14339 6.68738 5.17001 6.67276 5.20107C6.63621 5.19219 6.60258 5.18332 6.57188 5.17445C6.56896 5.15818 6.56311 5.14635 6.5675 5.14043C6.61331 5.07338 6.5982 5.0226 6.52218 4.98809C6.51487 4.98514 6.51048 4.97331 6.50463 4.96591C6.54264 4.91661 6.56555 4.86978 6.57334 4.82541C6.58212 4.77216 6.59089 4.71744 6.60112 4.65976C6.66106 4.67603 6.68299 4.71744 6.69323 4.76181C6.71954 4.87717 6.72978 4.99549 6.71223 5.11381H6.71077ZM7.0865 5.8814C7.08942 5.96274 7.08942 6.04557 7.0865 6.12691C7.0865 6.14466 7.07334 6.17276 7.06018 6.17572C7.03825 6.18163 7.0017 6.18015 6.99147 6.16684C6.96515 6.13135 6.94907 6.08846 6.93299 6.04557C6.92714 6.02782 6.93299 6.00415 6.93884 5.98641C6.96808 5.91837 6.96662 5.83703 7.0134 5.77048C7.07188 5.79266 7.08357 5.83555 7.08503 5.88288L7.0865 5.8814ZM7.01194 5.51905C7.01194 5.51905 7.01925 5.5368 7.02363 5.54567C7.01486 5.59596 6.99293 5.62406 6.94907 5.62701C6.93591 5.62701 6.91691 5.61814 6.91106 5.60779C6.90521 5.59891 6.90667 5.57525 6.91398 5.56785C6.93591 5.54715 6.96077 5.53088 6.98708 5.51461C6.99293 5.51165 7.00755 5.51461 7.0134 5.51905H7.01194ZM6.94761 5.23656C6.95784 5.2691 6.95638 5.3046 6.95931 5.34009C6.94907 5.34157 6.9403 5.34305 6.93007 5.34453C6.90229 5.31051 6.87451 5.2765 6.84673 5.24248C6.90083 5.20107 6.93591 5.19959 6.94761 5.23508V5.23656ZM6.85258 6.27481C6.89644 6.35171 6.93007 6.42123 6.93007 6.50997C6.82042 6.44045 6.8058 6.39756 6.85258 6.27481ZM6.78972 6.80576C6.84235 6.81611 6.89352 6.82055 6.90814 6.89154C6.91252 6.91373 6.9286 6.93887 6.94761 6.95366C7.00609 6.99655 6.98854 7.05571 6.9827 7.10895C6.97539 7.16811 6.96223 7.23023 6.87597 7.2672C6.87597 7.2184 6.87597 7.18734 6.87597 7.15628C6.88036 7.07641 6.87013 7.00394 6.81165 6.94331C6.77948 6.90929 6.76632 6.86344 6.78972 6.80576ZM6.89936 8.83196C6.89352 8.87781 6.89205 8.90591 6.88621 8.93401C6.88036 8.96359 6.86866 8.99317 6.86574 9.02275C6.86135 9.06121 6.89936 9.08191 6.9403 9.06564C6.952 9.06121 6.96223 9.04937 6.97685 9.03754C6.99878 9.09522 6.94176 9.12185 6.93738 9.16473C6.93153 9.21058 6.93007 9.25643 6.92568 9.31559C6.85551 9.18692 6.84235 9.05825 6.83065 8.92958C6.82627 8.89112 6.83358 8.85711 6.90083 8.83049L6.89936 8.83196ZM6.86574 8.57758C6.91252 8.59927 6.92714 8.6604 6.9096 8.76097C6.84966 8.72252 6.83942 8.68111 6.86574 8.57758ZM6.78241 8.44595C6.76486 8.34834 6.76632 8.25368 6.8482 8.17234C6.88182 8.19009 6.91398 8.20784 6.95053 8.22706C6.91837 8.27439 6.88767 8.31432 6.8672 8.35721C6.8482 8.39714 6.84381 8.44447 6.83211 8.48736C6.79264 8.4918 6.78533 8.46518 6.78241 8.44447V8.44595ZM7.14936 10.0654C7.13182 10.0965 7.11866 10.129 7.10112 10.1616C7.02217 10.1231 7.06749 10.0285 7.00024 9.98113C6.97685 9.9974 6.95053 10.0181 6.92568 10.0373C6.92129 10.0359 6.91545 10.0359 6.91398 10.0314C6.90083 10.0122 6.90667 9.97817 6.87159 9.97522C6.85989 9.97522 6.84235 9.99592 6.82042 10.0418C6.7941 9.88648 6.79556 9.74154 6.93591 9.61878C6.95346 9.64688 6.971 9.66463 6.97831 9.68534C6.99732 9.7445 7.00901 9.80513 7.02802 9.86281C7.03679 9.89091 7.05287 9.91901 7.07188 9.9412C7.08211 9.95155 7.10989 9.95303 7.12743 9.9486C7.13767 9.94564 7.14936 9.92197 7.1479 9.91162C7.1362 9.85098 7.12012 9.79182 7.1055 9.73118C7.08942 9.66611 7.07334 9.60251 7.06164 9.53596C7.05726 9.5123 7.06749 9.48715 7.06895 9.46497C7.10258 9.45609 7.11135 9.47236 7.11574 9.49455C7.13474 9.58033 7.15082 9.66611 7.17568 9.75041C7.20784 9.85986 7.20492 9.96338 7.14936 10.064V10.0654ZM7.14205 7.36482C7.15229 7.24798 7.16106 7.14741 7.16983 7.04684C7.16983 7.03944 7.18153 7.03205 7.18737 7.02465C7.24731 7.03648 7.22831 7.08529 7.22977 7.12226C7.23269 7.20656 7.23708 7.29382 7.14059 7.36482H7.14205ZM7.11281 15.1354C7.09527 15.1369 7.06895 15.128 7.05872 15.1147C7.01194 15.0555 6.96369 14.9978 6.98854 14.9076C7.00609 14.8455 7.00463 14.7775 7.0134 14.6946C7.07773 14.6872 7.12597 14.7227 7.14351 14.776C7.1786 14.881 7.20199 14.9904 7.23269 15.1073C7.1903 15.1176 7.15229 15.1309 7.11427 15.1354H7.11281ZM4.40963 20.967C4.2722 20.9611 4.17717 21.0483 4.08799 21.1415C3.99296 21.2406 3.87454 21.2909 3.7532 21.3382C3.73566 21.2953 3.75759 21.2776 3.77805 21.2658C3.90525 21.1903 4.00466 21.075 4.15086 21.0262C4.19618 21.0114 4.23127 20.9655 4.26928 20.9315C4.30729 20.8975 4.34091 20.8576 4.38039 20.825C4.40085 20.8087 4.43009 20.8028 4.47249 20.7851C4.44764 20.8561 4.42863 20.9064 4.40816 20.967H4.40963ZM4.82629 21.1016C4.78828 21.0853 4.78389 21.0602 4.79412 21.035C4.81752 20.9818 4.86138 21.0069 4.92424 21.0128C4.88038 21.0513 4.85114 21.0779 4.82483 21.1001L4.82629 21.1016ZM5.87598 20.476C5.8409 20.4789 5.80289 20.4819 5.7561 20.4848C5.7064 20.5632 5.65084 20.6431 5.53973 20.6461C5.56897 20.5958 5.59528 20.544 5.62745 20.4952C5.64061 20.4745 5.66107 20.4553 5.683 20.4449C5.7371 20.4183 5.80142 20.4094 5.82774 20.3429C5.83066 20.3355 5.85405 20.331 5.86721 20.334C5.90961 20.3399 5.933 20.3177 5.95347 20.2852C5.98563 20.2334 6.0368 20.2112 6.09382 20.2098C6.11136 20.2098 6.12744 20.2231 6.15083 20.2334C6.06896 20.3325 5.91692 20.334 5.87452 20.476H5.87598ZM6.25463 20.2038C6.30922 20.125 6.35795 20.0974 6.40083 20.121C6.36574 20.158 6.33066 20.1861 6.25463 20.2038ZM7.19468 19.8445C7.15521 19.8237 7.1172 19.7971 7.08211 19.7764C6.94322 19.8504 6.85404 19.9184 6.78825 20.0057C6.75317 20.0101 6.71369 20.016 6.67714 20.0219C6.66691 20.0116 6.65375 20.0057 6.65375 19.9983C6.65229 19.9583 6.65375 19.9169 6.65375 19.8681C6.68007 19.8637 6.70346 19.8592 6.72685 19.8533C6.81165 19.8311 6.83358 19.7942 6.81311 19.7084C6.80726 19.6862 6.77948 19.6685 6.80434 19.633C6.9286 19.735 7.05872 19.7394 7.1903 19.6359C7.19322 19.6961 7.21515 19.7557 7.25609 19.8149C7.24439 19.8415 7.22538 19.8578 7.19761 19.843L7.19468 19.8445ZM7.73561 19.5886C7.70491 19.5649 7.68152 19.5457 7.65667 19.5294C7.63327 19.5132 7.60696 19.4998 7.57772 19.4821C7.61573 19.4303 7.65813 19.4274 7.70345 19.4436C7.73123 19.454 7.75608 19.4777 7.78386 19.4836C7.81017 19.4895 7.84088 19.4777 7.87742 19.4732C7.85257 19.5561 7.77216 19.5383 7.73561 19.5886ZM9.89933 10.3346C9.92126 10.2947 9.94904 10.2592 9.9812 10.2104C10.0134 10.3065 9.96951 10.3657 9.91541 10.4352C9.88471 10.3982 9.88179 10.3657 9.89787 10.3346H9.89933ZM10.0148 10.697C9.99436 10.7236 9.96658 10.7162 9.94904 10.7029C9.93588 10.6925 9.93003 10.6689 9.92857 10.6511C9.92565 10.6201 9.92857 10.6201 9.97389 10.5653C10.0221 10.5993 10.0178 10.6496 10.0148 10.697ZM9.80284 11.3019C9.79407 11.3566 9.78676 11.3995 9.77653 11.4527C9.72974 11.4409 9.7005 11.4172 9.70343 11.3743C9.70635 11.3314 9.73413 11.3019 9.80284 11.3019ZM9.60548 11.1436C9.62594 11.1022 9.64787 11.0608 9.69612 11.046C9.73998 11.0623 9.74436 11.0948 9.72974 11.1333C9.71366 11.1747 9.68442 11.2013 9.63764 11.2013C9.61279 11.2013 9.59378 11.1673 9.60548 11.1436ZM9.58208 5.61666C9.57916 5.62849 9.57624 5.64032 9.57185 5.65068C9.57477 5.63885 9.5777 5.62701 9.58062 5.61518L9.58208 5.61666ZM9.00753 9.81253C9.03092 9.77555 9.04115 9.72971 9.06601 9.66463C9.15373 9.78739 9.16542 9.89091 9.10548 10.0018C9.06893 10.0669 9.02069 10.0714 8.97975 10.0122C8.95782 9.97965 8.93589 9.94564 8.91396 9.91162C8.94759 9.8776 8.98414 9.85098 9.00753 9.81401V9.81253ZM9.10987 14.6296C9.11133 14.6902 9.11864 14.7494 9.12449 14.8233C9.10402 14.7982 9.0894 14.7849 9.08063 14.7686C9.05285 14.708 9.028 14.6473 8.99876 14.5778C9.05724 14.5275 9.10256 14.4905 9.15957 14.4403C9.16396 14.5216 9.10694 14.5689 9.1084 14.6281L9.10987 14.6296ZM9.12302 14.1252C9.14642 14.2081 9.13033 14.2864 9.07917 14.3663C9.07332 14.2835 9.06747 14.2095 9.06455 14.1341C9.06455 14.1149 9.07186 14.0942 9.07917 14.0542C9.09963 14.0868 9.11718 14.1031 9.12302 14.1238V14.1252ZM9.08209 11.0342C9.03531 10.9957 9.03384 10.9528 9.0587 10.9025C9.14788 10.9218 9.14788 10.9262 9.08209 11.0342ZM9.1318 13.0589C9.1508 13.0781 9.15519 13.1033 9.15957 13.1284C9.1508 13.1047 9.14057 13.0826 9.1318 13.0589ZM8.93151 13.3443C8.94466 13.3591 8.95344 13.3783 8.96075 13.3961C8.9973 13.4922 9.01484 13.5913 9.00753 13.6934C8.97683 13.6579 8.95344 13.6179 8.91981 13.5928C8.83502 13.5277 8.85256 13.4405 8.85987 13.3547C8.85987 13.3458 8.88034 13.3325 8.89349 13.3295C8.90665 13.3281 8.9242 13.334 8.93297 13.3429L8.93151 13.3443ZM8.5397 11.4468C8.60841 11.5355 8.60987 11.5503 8.56747 11.6967C8.51192 11.6243 8.509 11.5962 8.5397 11.4468ZM8.56309 13.6919C8.54555 13.7259 8.52654 13.7614 8.50607 13.8013C8.50607 13.8561 8.52215 13.9093 8.54993 13.9596C8.57479 14.004 8.59671 14.0498 8.59964 14.1016C8.51192 14.1341 8.48707 14.1297 8.4549 14.0779C8.42128 14.0247 8.41251 13.9803 8.41835 13.8635C8.39642 13.8575 8.37303 13.8501 8.34964 13.8442C8.31017 13.7762 8.36426 13.7303 8.38619 13.686C8.37303 13.5765 8.35987 13.476 8.34672 13.3665C8.39496 13.3754 8.43736 13.3828 8.48122 13.3902C8.4052 13.5262 8.40666 13.5603 8.56601 13.6904L8.56309 13.6919ZM8.48999 12.9154C8.43736 12.979 8.42274 13.0515 8.42128 13.1314C8.42128 13.1565 8.42128 13.1846 8.38765 13.1905C8.33941 13.1314 8.36865 13.0382 8.29262 12.9805C8.28093 13.0145 8.27216 13.0411 8.26338 13.0678C8.259 13.0678 8.25461 13.0678 8.25315 13.0648C8.20491 12.9702 8.26046 12.8651 8.36134 12.8637C8.40081 12.8637 8.44175 12.8711 8.4856 12.877C8.48707 12.8888 8.4973 12.9095 8.49145 12.9169L8.48999 12.9154ZM8.278 15.8704C8.27947 15.8098 8.20929 15.761 8.26192 15.687C8.30432 15.6249 8.25315 15.5584 8.22684 15.4992C8.21514 15.4726 8.18736 15.4519 8.17128 15.4267C8.11134 15.3306 8.11134 15.3306 7.99 15.3557C7.98269 15.3557 7.97391 15.3484 7.96514 15.3439C8.03093 15.2345 8.02947 15.2345 8.01485 15.0866C8.009 15.0304 8.009 14.9727 8.01046 14.9165C8.01339 14.847 7.99438 14.7863 7.95637 14.7272C7.89789 14.637 7.84087 14.5453 7.82333 14.4343C7.81894 14.4077 7.79555 14.3811 7.77509 14.3589C7.73269 14.3086 7.71661 14.2554 7.72246 14.1888C7.73123 14.0912 7.68444 13.9552 7.6245 13.8768C7.61281 13.8605 7.59526 13.8457 7.59088 13.8265C7.54702 13.6801 7.47977 13.5396 7.48854 13.3798C7.49439 13.2778 7.48415 13.1772 7.40228 13.0633C7.51778 13.0899 7.56164 13.1299 7.58064 13.2127C7.59234 13.263 7.64058 13.3044 7.68006 13.3606C7.65667 13.4523 7.66251 13.5514 7.74731 13.6401C7.77509 13.6165 7.79994 13.5928 7.82772 13.5736C7.83503 13.5691 7.84965 13.5662 7.85549 13.5706C7.86573 13.578 7.88035 13.5943 7.87889 13.6032C7.85842 13.6949 7.84965 13.7851 7.87011 13.8782C7.87304 13.893 7.87889 13.9078 7.88181 13.9197C7.9169 13.9344 7.93006 13.9093 7.94029 13.8886C7.95929 13.8472 7.97391 13.8058 7.99146 13.7614C8.06456 13.7762 8.08941 13.822 8.09964 13.8812C8.11134 13.9552 8.1435 14.0173 8.21368 14.0616C8.17128 14.1755 8.18444 14.2924 8.17859 14.4062C8.17567 14.4772 8.15958 14.5467 8.14789 14.6192C8.07771 14.5941 8.06017 14.5778 8.0704 14.5393C8.07625 14.5142 8.08502 14.4891 8.09672 14.4669C8.12888 14.4062 8.10695 14.3574 8.06748 14.3131C8.05432 14.2998 8.03386 14.2835 8.01777 14.285C8.00315 14.285 7.98415 14.3071 7.97976 14.3234C7.96807 14.356 7.9666 14.387 7.93444 14.4151C7.87158 14.4698 7.87158 14.5467 7.93444 14.6C8.01485 14.6665 8.0514 14.7523 8.07918 14.847C8.09818 14.9135 8.10403 14.9756 8.09087 15.0452C8.07479 15.125 8.0938 15.199 8.16543 15.2522C8.20052 15.2359 8.23561 15.2138 8.27216 15.2034C8.3204 15.1901 8.37011 15.2226 8.37011 15.2729C8.37011 15.3276 8.3628 15.3853 8.34672 15.4386C8.32917 15.5036 8.30578 15.5613 8.32333 15.6338C8.33356 15.6752 8.31017 15.724 8.30724 15.7684C8.30724 15.7817 8.31602 15.8039 8.32625 15.8068C8.34233 15.8113 8.36865 15.8113 8.38034 15.8024C8.41543 15.7728 8.44321 15.7358 8.47683 15.7048C8.49438 15.6885 8.51777 15.6796 8.55139 15.6604C8.55139 15.693 8.5587 15.7225 8.55139 15.7284C8.49291 15.7699 8.47537 15.8305 8.4549 15.8956C8.44321 15.9311 8.41104 15.9607 8.37888 16.0035C8.33941 15.9533 8.34233 15.8837 8.28093 15.869L8.278 15.8704ZM7.49877 12.6877C7.49877 12.6877 7.49293 12.7039 7.48854 12.7128C7.41837 12.6581 7.42275 12.6063 7.50462 12.451C7.3672 12.2824 7.39497 12.309 7.37451 12.0192C7.50901 12.0236 7.51485 12.0251 7.53386 12.1227C7.54994 12.207 7.57187 12.2928 7.5748 12.3786C7.5748 12.4362 7.56164 12.5058 7.52801 12.5516C7.49293 12.5989 7.47977 12.6359 7.50024 12.6891L7.49877 12.6877ZM7.4169 12.9243C7.4169 12.9243 7.40375 12.9391 7.39644 12.9406C7.38766 12.9406 7.37597 12.9347 7.37158 12.9287C7.35258 12.8977 7.34088 12.8637 7.37158 12.8311C7.42275 12.8444 7.43006 12.8799 7.4169 12.9243ZM7.76339 10.9099C7.80286 11.0238 7.81456 11.1407 7.80871 11.2575C7.76778 11.2634 7.75754 11.2471 7.75754 11.225C7.75754 11.1199 7.76047 11.0149 7.76339 10.9099ZM7.76339 12.1685C7.76924 12.1464 7.78678 12.1197 7.80433 12.1123C7.84234 12.0976 7.87158 12.1183 7.88912 12.1671C7.83162 12.2065 7.79068 12.2662 7.76631 12.346C7.74 12.3534 7.72684 12.3416 7.73123 12.3164C7.74 12.2662 7.74877 12.2174 7.76193 12.1685H7.76339ZM7.95491 13.3088C7.97684 13.2452 7.99584 13.1846 8.01631 13.124C8.01923 13.124 8.03386 13.1284 8.03386 13.1314C8.03386 13.2038 8.04847 13.2704 8.09818 13.3266C8.10988 13.3414 8.11719 13.3621 8.12011 13.3813C8.12157 13.3917 8.10988 13.405 8.09818 13.4272C8.0704 13.3931 8.05286 13.3621 8.02801 13.3414C8.00608 13.3236 7.97538 13.3177 7.95491 13.3088ZM8.38765 14.9549C8.37157 15.0052 8.34379 15.0466 8.2897 15.0644C8.28239 15.0673 8.26923 15.0599 8.26338 15.054C8.25754 15.0481 8.25607 15.0363 8.25461 15.0274C8.25461 15.023 8.25461 15.0171 8.25754 15.0126C8.27508 14.9816 8.29701 14.952 8.31017 14.9194C8.32333 14.8899 8.32771 14.8559 8.33648 14.8159C8.3935 14.8559 8.40373 14.9032 8.38765 14.9549ZM8.22976 9.58477C8.27069 9.67203 8.26485 9.69421 8.19029 9.78739C8.14935 9.72231 8.15374 9.70456 8.22976 9.58477ZM8.18005 12.1685C8.18005 12.1878 8.19029 12.2085 8.1976 12.2262C8.23853 12.3401 8.2473 12.3445 8.38765 12.3194C8.40227 12.2721 8.41835 12.2188 8.44321 12.139C8.46514 12.2321 8.48414 12.2972 8.48268 12.3652C8.48268 12.4037 8.45052 12.4303 8.41251 12.4259C8.38327 12.4229 8.35403 12.4022 8.32625 12.4303C8.29116 12.4643 8.26777 12.5013 8.27947 12.5531C8.28239 12.5664 8.27947 12.5827 8.278 12.6034C8.24876 12.6093 8.22099 12.6167 8.19175 12.6226C8.18298 12.6463 8.17567 12.6699 8.16689 12.6936C8.15666 12.6965 8.14497 12.7025 8.13766 12.6995C8.08649 12.6788 8.03532 12.6551 7.97684 12.63C7.96514 12.5472 7.95198 12.4629 7.93883 12.3726C7.96514 12.3697 7.98415 12.3682 8.01339 12.3652C8.02801 12.3416 8.04555 12.312 8.06456 12.2809C8.08795 12.278 8.1128 12.2765 8.13619 12.2736C8.18736 12.2262 8.16251 12.139 8.06456 12.0266C8.08064 11.9349 8.06748 11.8432 8.01485 11.7544C7.98853 11.7101 7.96222 11.6539 7.98415 11.5947C8.04263 11.6021 8.06894 11.6405 8.07625 11.6879C8.10257 11.8506 8.18005 12.0014 8.17859 12.17L8.18005 12.1685ZM7.94029 7.49645C8.00754 7.54229 8.02655 7.58518 8.02216 7.63843C8.02216 7.65322 8.00169 7.6754 7.98707 7.67836C7.97391 7.68132 7.94321 7.66505 7.94175 7.6547C7.9359 7.61181 7.94029 7.56744 7.94029 7.49645ZM7.93737 8.55835C7.94614 8.53321 7.97245 8.51103 7.99438 8.49328C8.01485 8.47701 8.04701 8.49919 8.04847 8.52582C8.04847 8.57906 8.03093 8.62343 7.99438 8.67223C7.94175 8.63674 7.92421 8.59829 7.93737 8.55687V8.55835ZM7.77509 10.2592C7.78824 10.169 7.80286 10.0787 7.81748 9.98853C7.87791 9.98064 7.93493 9.95402 7.98853 9.90866C8.03386 9.87021 8.0704 9.88352 8.08941 9.94416C8.0938 9.95895 8.09526 9.97522 8.09526 9.99001C8.09526 10.0004 8.09087 10.0092 8.08649 10.0255C8.06748 10.0329 8.04116 10.0373 8.02216 10.0521C7.96807 10.095 7.95929 10.169 8.01339 10.2281C8.09672 10.3198 8.09526 10.4219 8.06602 10.5284C8.05432 10.5712 8.05432 10.6082 8.06748 10.6482C8.10403 10.7532 8.08356 10.8552 8.04555 10.9824C8.02801 10.9144 8.02216 10.8685 8.00315 10.8271C7.98707 10.7916 7.95345 10.7635 7.93298 10.728C7.90959 10.6881 7.89351 10.6452 7.87158 10.5964C7.89935 10.5742 7.92567 10.555 7.95052 10.5358C7.94321 10.4426 7.93736 10.3509 7.93005 10.2592C7.92567 10.2148 7.91836 10.2074 7.85257 10.1719C7.84672 10.2296 7.83941 10.2843 7.83356 10.3405C7.78093 10.3183 7.76631 10.3006 7.77216 10.2577L7.77509 10.2592ZM7.68152 10.5387C7.72392 10.6097 7.7707 10.6748 7.80286 10.7458C7.81894 10.7842 7.81164 10.836 7.80871 10.8804C7.80871 10.8907 7.77947 10.8996 7.76339 10.9085C7.73561 10.8552 7.7093 10.8005 7.68152 10.7472C7.64789 10.6822 7.62304 10.6156 7.68152 10.5387ZM7.60842 10.9336C7.61866 10.9292 7.6362 10.9351 7.64789 10.941C7.65374 10.9439 7.65813 10.9617 7.6552 10.9661C7.63766 10.9942 7.61573 11.0209 7.58357 11.0637C7.56456 10.9942 7.56018 10.9543 7.60842 10.9336ZM7.65667 11.503C7.65082 11.5222 7.65082 11.5341 7.64497 11.54C7.62889 11.5577 7.60988 11.5725 7.57772 11.6006C7.57626 11.5607 7.56895 11.537 7.5748 11.5163C7.58795 11.4764 7.62012 11.4882 7.65667 11.503ZM7.38766 11.4424C7.41398 11.5311 7.44468 11.6169 7.49293 11.6982C7.51778 11.6953 7.54117 11.6938 7.56895 11.6908C7.57333 11.8225 7.68883 11.9275 7.65667 12.0783C7.63766 12.0635 7.62158 12.0561 7.61719 12.0443C7.59234 11.9689 7.5514 11.9216 7.46369 11.9201C7.43445 11.9201 7.40082 11.889 7.37889 11.8639C7.33649 11.8165 7.32626 11.7544 7.32187 11.6908C7.31603 11.5991 7.30579 11.5074 7.29702 11.4157C7.35696 11.3936 7.37304 11.3965 7.3862 11.4424H7.38766ZM7.15813 11.1747C7.22246 11.2782 7.221 11.2886 7.10404 11.3743C7.06505 11.2955 7.08309 11.2289 7.15813 11.1747ZM6.90229 12.9006C6.87451 12.9332 6.86428 12.9849 6.81018 13.0012C6.75463 12.9199 6.81603 12.8311 6.78533 12.7424C6.8672 12.7261 6.93738 12.7099 7.0017 12.7838C6.96662 12.8252 6.93445 12.8637 6.90229 12.9006ZM6.99732 12.1552C6.971 12.1345 6.95784 12.1094 6.96515 12.0768C6.96954 12.0606 6.98562 12.0473 6.99585 12.0325C7.00901 12.0443 7.03533 12.0547 7.03533 12.0665C7.03825 12.1138 7.03533 12.1611 7.03533 12.2085C7.0324 12.1863 7.01486 12.17 6.99732 12.1552ZM7.02948 13.6623C7.03825 13.6549 7.04849 13.6431 7.06018 13.6372C7.10989 13.6105 7.1172 13.5706 7.10258 13.5203C7.08796 13.4715 7.0748 13.4212 7.06457 13.371C7.06018 13.3532 7.06749 13.3325 7.06895 13.3133C7.08503 13.3133 7.10112 13.3133 7.10112 13.3162C7.14205 13.4671 7.21515 13.6091 7.22392 13.7806C7.20199 13.7954 7.17422 13.8146 7.13913 13.8383C7.16106 13.8694 7.18153 13.9004 7.20784 13.9389C7.18006 13.9448 7.15813 13.9507 7.14059 13.9537C7.10112 13.8516 7.06603 13.7584 7.02802 13.6608L7.02948 13.6623ZM7.18591 12.8149C7.13913 12.7705 7.09527 12.7306 7.0441 12.6818C7.0441 12.5871 7.0441 12.485 7.0441 12.383C7.0441 12.3327 7.03825 12.2824 7.03679 12.2321C7.04995 12.2366 7.0748 12.2395 7.07626 12.2469C7.08796 12.3061 7.10258 12.3682 7.10258 12.4274C7.10258 12.4954 7.12597 12.5442 7.18299 12.5812C7.21076 12.6004 7.23269 12.63 7.25901 12.6566C7.23416 12.7128 7.21223 12.7631 7.18883 12.8149H7.18591ZM7.27363 14.4728C7.27363 14.4728 7.26632 14.4491 7.27071 14.4462C7.28094 14.4388 7.29848 14.4299 7.30579 14.4343C7.3555 14.461 7.3862 14.5009 7.38328 14.5601C7.34673 14.532 7.30872 14.5039 7.27217 14.4728H7.27363ZM7.51193 14.8647C7.51193 14.8736 7.50316 14.881 7.49293 14.8987C7.47831 14.8854 7.45638 14.8766 7.45345 14.8618C7.43006 14.7642 7.40959 14.6665 7.38913 14.5689C7.50754 14.6325 7.52509 14.742 7.51339 14.8632L7.51193 14.8647ZM7.64643 15.1162C7.66398 15.1753 7.6786 15.2345 7.69029 15.2951C7.6976 15.335 7.66105 15.3631 7.62304 15.3513C7.58064 15.338 7.54994 15.3114 7.54702 15.2655C7.54409 15.23 7.54409 15.1931 7.55579 15.1605C7.58357 15.0762 7.59673 14.9919 7.60257 14.9047C7.6055 14.8411 7.60988 14.8411 7.68152 14.7405C7.72976 14.8218 7.74292 14.884 7.68006 14.9475C7.63181 14.9964 7.62889 15.0555 7.64789 15.1191L7.64643 15.1162ZM7.98415 16.4117H7.97099C7.97099 16.4117 7.97099 16.4014 7.97245 16.3955C7.97684 16.3955 7.98269 16.3969 7.98561 16.3999C7.98707 16.4014 7.98561 16.4073 7.98415 16.4117ZM7.94175 16.3112C7.94906 16.2076 7.95783 16.1071 7.96514 16.0021C7.91544 15.9266 7.84234 15.9636 7.77362 15.9754C7.759 15.9296 7.74731 15.8911 7.73561 15.8542C7.75316 15.8054 7.78532 15.7773 7.84234 15.7654C7.92421 15.8335 7.97099 15.9311 8.01339 16.0272C8.04263 16.0938 8.0631 16.1603 8.10695 16.2195C8.12157 16.2402 8.11719 16.2757 8.12304 16.3112H7.94029H7.94175ZM8.18005 16.7578C8.18005 16.7578 8.17128 16.7549 8.1552 16.7489C8.13473 16.6765 8.06017 16.6173 8.06894 16.5153C8.16982 16.5493 8.20929 16.4561 8.27947 16.4191C8.28678 16.431 8.29555 16.4413 8.3014 16.4546C8.31748 16.4901 8.27654 16.5094 8.278 16.533C8.278 16.5478 8.33356 16.5626 8.3321 16.5744C8.32333 16.6528 8.36865 16.6972 8.41543 16.746C8.43297 16.7637 8.44759 16.7859 8.45783 16.8081C8.46221 16.8185 8.45198 16.8362 8.44759 16.851C8.39058 16.8288 8.39496 16.7401 8.32917 16.7401C8.27947 16.7401 8.22976 16.7519 8.18151 16.7593L8.18005 16.7578ZM8.64057 17.3184C8.62449 17.3065 8.6128 17.2873 8.59671 17.2755C8.58502 17.2681 8.56309 17.2607 8.55578 17.2651C8.54116 17.2755 8.52654 17.2947 8.52508 17.3124C8.51631 17.3731 8.54262 17.4174 8.58648 17.4618C8.67128 17.5461 8.68736 17.6511 8.65812 17.7857C8.6318 17.7606 8.61572 17.7502 8.60841 17.7339C8.59379 17.7014 8.57917 17.6674 8.57332 17.6319C8.55286 17.5298 8.51046 17.4426 8.44467 17.3583C8.3935 17.2932 8.3628 17.2045 8.34525 17.1216C8.3321 17.061 8.32186 17.0033 8.2897 16.9486C8.27362 16.922 8.27216 16.888 8.32771 16.8658C8.35695 16.9427 8.38473 17.0137 8.40958 17.0802C8.47245 17.1083 8.49145 17.0388 8.54847 17.0388C8.60549 17.1305 8.65519 17.2341 8.70782 17.3376C8.66835 17.3598 8.65812 17.3287 8.64057 17.3154V17.3184ZM8.80724 15.0496C8.78823 15.0807 8.76923 15.1117 8.78092 15.1502C8.81162 15.2448 8.76192 15.3055 8.69759 15.3646C8.63911 15.3365 8.58502 15.3099 8.528 15.2818C8.51777 15.2374 8.55432 15.1857 8.50461 15.1428C8.47098 15.1132 8.47537 15.0659 8.48999 15.0259C8.52215 14.9328 8.48268 14.8425 8.48707 14.7508C8.48707 14.7375 8.48122 14.7183 8.47098 14.7094C8.4052 14.6473 8.40227 14.563 8.3935 14.4817C8.38619 14.4136 8.37157 14.35 8.33064 14.2938C8.31017 14.2643 8.29555 14.2302 8.33064 14.1874C8.44028 14.2524 8.50315 14.35 8.52654 14.4772C8.56163 14.4891 8.59525 14.4994 8.62303 14.5068C8.62157 14.5689 8.61864 14.6237 8.61718 14.6784C8.62595 14.6799 8.63765 14.6784 8.6435 14.6843C8.65081 14.6917 8.65227 14.705 8.65666 14.7153C8.64788 14.7153 8.63619 14.7213 8.6318 14.7183C8.62157 14.7109 8.61572 14.6991 8.60695 14.6887C8.59233 14.6917 8.57625 14.6932 8.55724 14.6976C8.52946 14.7553 8.5397 14.8159 8.55139 14.8766C8.5587 14.9121 8.60549 14.9313 8.63619 14.9091C8.65227 14.8973 8.66543 14.881 8.68005 14.8662C8.69028 14.8559 8.70344 14.847 8.71806 14.8351C8.77946 14.8529 8.81747 14.9002 8.85402 14.9342C8.86718 14.9949 8.82624 15.0185 8.80578 15.0526L8.80724 15.0496ZM9.14495 16.1189C9.07965 16.0568 9.01679 16.0612 8.95636 16.1322C8.95636 16.1322 8.93882 16.1366 8.92127 16.1396C8.92566 16.0982 8.93589 16.0583 8.93151 16.0213C8.92566 15.9814 8.9008 15.9444 8.89349 15.9044C8.8818 15.8394 8.87887 15.7728 8.87156 15.6944C8.89934 15.6678 8.93151 15.6368 8.96513 15.6042C8.98267 15.6131 9.00168 15.616 9.00607 15.6264C9.02946 15.6722 9.04846 15.7196 9.06893 15.7654C9.08648 15.8068 9.09525 15.8571 9.12449 15.8911C9.18589 15.9621 9.1625 16.0405 9.17127 16.1159C9.15519 16.1189 9.14788 16.1219 9.14642 16.1204L9.14495 16.1189ZM9.17566 9.22241C9.13618 9.16178 9.17127 9.11889 9.2049 9.0686C9.23121 9.12875 9.22146 9.18002 9.17566 9.22241ZM9.38033 16.3496C9.37595 16.4088 9.3701 16.4147 9.26484 16.499C9.24875 16.4354 9.25314 16.3792 9.28238 16.323C9.29554 16.2979 9.31747 16.289 9.34524 16.2934C9.37595 16.2993 9.38326 16.323 9.38179 16.3496H9.38033ZM9.32478 9.46645C9.27946 9.45166 9.27653 9.40581 9.28969 9.37327C9.31893 9.29932 9.3584 9.22981 9.42273 9.17952C9.42419 9.17952 9.43004 9.18248 9.44027 9.1884C9.40226 9.27862 9.36425 9.37031 9.32331 9.46645H9.32478ZM9.7122 15.5894C9.71366 15.6072 9.71805 15.6338 9.68881 15.6338C9.67857 15.6338 9.66103 15.619 9.65811 15.6072C9.64933 15.5732 9.64495 15.5377 9.64056 15.5066C9.4929 15.4105 9.48706 15.3957 9.51483 15.2241C9.55285 15.2078 9.59524 15.1916 9.64495 15.1709C9.7239 15.2286 9.73267 15.3055 9.75167 15.3794C9.72828 15.3957 9.70928 15.409 9.68881 15.4223C9.66542 15.4829 9.70635 15.5332 9.7122 15.5879V15.5894ZM9.72682 12.8681C9.67711 12.8725 9.62594 12.877 9.5777 12.8681C9.51483 12.8563 9.48559 12.8001 9.51337 12.7394C9.55138 12.6581 9.55723 12.5723 9.56454 12.485C9.5777 12.3549 9.53384 12.2484 9.44466 12.1478C9.48706 12.0813 9.50606 12.0768 9.5353 12.1153C9.56746 12.1582 9.58208 12.204 9.58355 12.2573C9.58355 12.3031 9.58939 12.349 9.59378 12.3948C9.60548 12.5043 9.65226 12.5974 9.71512 12.6862C9.73851 12.7187 9.7546 12.7572 9.76922 12.7942C9.78091 12.8223 9.75898 12.8622 9.72828 12.8651L9.72682 12.8681ZM9.87155 12.4496C9.84231 12.4496 9.82185 12.4555 9.816 12.4496C9.78237 12.4037 9.78237 12.3963 9.78822 12.2913C9.85401 12.3209 9.87302 12.3726 9.87155 12.451V12.4496ZM10.066 11.3788C10.0353 11.3729 10.0002 11.3876 9.95927 11.3936C9.96805 11.327 9.97828 11.2634 9.98851 11.1909H9.89495C9.8891 11.1806 9.87887 11.1732 9.88033 11.1658C9.88325 11.1155 9.8891 11.0652 9.89056 11.0149C9.89349 10.9336 9.89348 10.8523 9.92857 10.7739H10.0294C10.0251 10.8168 10.0236 10.8582 10.0163 10.8966C10.0104 10.9262 9.99436 10.9543 9.98413 10.9824C9.95635 11.0667 9.97097 11.0815 10.0762 11.0771C10.0704 11.154 10.1011 11.2131 10.1859 11.2309C10.161 11.2871 10.1449 11.324 10.1274 11.3595C10.1142 11.3876 10.0967 11.3862 10.0675 11.3788H10.066ZM10.2985 14.3471C10.2985 14.3471 10.3072 14.3323 10.3116 14.3249C10.3145 14.3279 10.3204 14.3308 10.3218 14.3338C10.3233 14.3456 10.3233 14.3574 10.3248 14.3707C10.316 14.3634 10.3058 14.3574 10.2999 14.3471H10.2985ZM10.3847 14.6103C10.3715 14.6163 10.3569 14.6177 10.3321 14.6222C10.2955 14.5423 10.3321 14.461 10.3277 14.3826C10.3818 14.461 10.3832 14.4639 10.4066 14.5911C10.3993 14.597 10.3935 14.6059 10.3847 14.6103ZM10.4315 12.2869C10.3891 12.2662 10.3935 12.2321 10.4037 12.1952C10.4139 12.1611 10.43 12.1257 10.3964 12.0946C10.354 12.0576 10.3233 12.0916 10.2882 12.1123C10.2809 12.1168 10.2692 12.1123 10.2414 12.1109C10.259 12.031 10.2751 11.9615 10.2897 11.8979C10.3306 11.8861 10.3642 11.8772 10.4052 11.8639C10.3979 11.8343 10.392 11.8106 10.3862 11.7884C10.3701 11.7278 10.3701 11.7278 10.4593 11.7012C10.4593 11.7219 10.4622 11.7411 10.4593 11.7574C10.4403 11.8417 10.4666 11.923 10.4929 11.9985C10.5338 12.1123 10.5134 12.204 10.4315 12.2869ZM10.7444 12.491C10.756 12.4229 10.7897 12.4052 10.8467 12.4392C10.8598 12.4466 10.8672 12.4688 10.8759 12.4836C10.8394 12.4998 10.8014 12.5176 10.7575 12.5368C10.7531 12.5235 10.7414 12.5058 10.7444 12.4895V12.491ZM10.5777 13.5396C10.7049 13.6135 10.7166 13.6327 10.702 13.7377C10.6055 13.7067 10.5748 13.6357 10.5777 13.5396ZM10.7926 15.3336C10.759 15.3084 10.721 15.2936 10.7093 15.267C10.6815 15.2093 10.6581 15.1457 10.6464 15.0821C10.6347 15.0141 10.6742 14.9712 10.7473 14.9446C10.7531 15.02 10.7619 15.0836 10.7634 15.1487C10.7648 15.2064 10.8218 15.2552 10.7926 15.3336ZM10.8145 14.4358C10.7137 14.2983 10.6245 14.1785 10.6172 14.0173C10.6172 14.0069 10.6318 13.9892 10.642 13.9862C10.6522 13.9847 10.6727 13.998 10.6742 14.0069C10.6961 14.14 10.759 14.2554 10.8175 14.3737C10.8233 14.3841 10.8175 14.4003 10.8131 14.4358H10.8145ZM10.8905 12.5191C10.8876 12.5087 10.8847 12.4998 10.8818 12.4895L10.9052 12.5043C10.9052 12.5043 10.8949 12.5146 10.8905 12.5191ZM11.6332 15.6767C11.6332 15.6856 11.6332 15.6944 11.6332 15.7033C11.6332 15.7033 11.6274 15.7033 11.6245 15.7033C11.6245 15.6944 11.6245 15.6856 11.6245 15.6767C11.6245 15.6767 11.6303 15.6767 11.6332 15.6767ZM11.2663 13.6165C11.2292 13.5967 11.1946 13.5218 11.1625 13.3917C11.2546 13.4242 11.2824 13.4863 11.2663 13.6165ZM11.4212 13.2793C11.3759 13.2053 11.3379 13.1254 11.2897 13.053C11.221 12.9524 11.2034 12.8341 11.1625 12.7232C11.1508 12.6906 11.1581 12.6625 11.2005 12.6477C11.2692 12.7084 11.335 12.7794 11.3525 12.8696C11.3701 12.9583 11.4169 13.0175 11.4724 13.0766C11.4826 13.087 11.4929 13.0988 11.5075 13.1151C11.5075 13.1994 11.5236 13.2807 11.5952 13.3473C11.6245 13.3754 11.6332 13.4286 11.6464 13.4715C11.6537 13.4952 11.6172 13.5174 11.5938 13.5055C11.5806 13.4981 11.5645 13.4922 11.5572 13.4819C11.5104 13.4153 11.4651 13.3473 11.4227 13.2778L11.4212 13.2793ZM11.5119 14.0395C11.5119 14.0395 11.5441 14.0395 11.5514 14.0498C11.6025 14.109 11.6201 14.1814 11.6201 14.2643C11.5791 14.2066 11.5353 14.1504 11.4973 14.0912C11.49 14.0809 11.5031 14.0557 11.5119 14.0409V14.0395ZM11.756 16.3955C11.737 16.3836 11.7195 16.36 11.7122 16.3393C11.7034 16.3156 11.7078 16.289 11.7034 16.2638C11.7005 16.2446 11.6932 16.2269 11.6859 16.2017C11.6522 16.215 11.6259 16.2254 11.5938 16.2387C11.5426 16.1455 11.4812 16.0568 11.509 15.9385C11.5177 15.9 11.506 15.8586 11.5031 15.8054C11.5426 15.7935 11.5704 15.7847 11.5981 15.7758C11.6011 15.7906 11.6084 15.8009 11.6055 15.8098C11.5938 15.8542 11.5762 15.8971 11.566 15.9414C11.5557 15.9873 11.5601 16.0331 11.5835 16.076C11.6025 16.11 11.6391 16.1189 11.6727 16.0923C11.6873 16.0804 11.6932 16.0583 11.7063 16.0361C11.7663 16.1026 11.7487 16.1692 11.7692 16.2239C11.7882 16.2742 11.8174 16.3215 11.8394 16.3659C11.816 16.4073 11.7853 16.4132 11.7575 16.3969L11.756 16.3955ZM11.9212 14.316C11.911 14.3471 11.8788 14.3707 11.854 14.3959C11.8364 14.4122 11.797 14.4018 11.7911 14.3767C11.7882 14.3604 11.794 14.3353 11.8057 14.3249C11.8291 14.3071 11.8598 14.2983 11.8862 14.2835C11.9022 14.2731 11.9139 14.2569 11.9329 14.2376C11.9022 14.1992 11.873 14.1652 11.8496 14.1282C11.8321 14.1001 11.835 14.069 11.8759 14.0483C11.9198 14.0661 11.9402 14.1119 11.9432 14.1533C11.9461 14.2081 11.9373 14.2643 11.9212 14.316ZM12.4914 14.847C12.4417 14.8204 12.3949 14.7923 12.3452 14.7701C12.2809 14.742 12.2546 14.6932 12.2531 14.6251C12.2531 14.5571 12.2633 14.492 12.3072 14.4358C12.3218 14.4358 12.3379 14.4314 12.3525 14.4343C12.4037 14.4447 12.4242 14.4817 12.3993 14.5216C12.3832 14.5467 12.3569 14.5645 12.3364 14.5852C12.2926 14.6325 12.3087 14.6976 12.3701 14.7183C12.3935 14.7272 12.4227 14.7242 12.4432 14.7361C12.487 14.7597 12.5133 14.7952 12.4899 14.847H12.4914ZM12.6347 15.0126C12.7312 15.1073 12.7341 15.1132 12.7429 15.2049C12.6098 15.0895 12.6098 15.0881 12.6347 15.0126ZM12.7546 14.8662C12.7546 14.8662 12.7239 14.8706 12.7122 14.8662C12.6771 14.8455 12.6449 14.8218 12.6186 14.8041C12.5587 14.6917 12.6244 14.5941 12.6259 14.4861C12.6405 14.4994 12.6537 14.5053 12.6581 14.5172C12.6917 14.5926 12.7253 14.6665 12.756 14.7434C12.7663 14.7671 12.775 14.7923 12.775 14.8174C12.775 14.8351 12.7648 14.8559 12.7531 14.8692L12.7546 14.8662ZM14.8934 23.1707C14.8437 23.1515 14.854 23.1012 14.8496 23.0538C14.9119 23.0775 14.9665 23.1145 15.0133 23.1648C14.9753 23.2106 14.9285 23.1855 14.8934 23.1707ZM16.0148 23.6277C15.9621 23.6159 15.9183 23.604 15.9256 23.5419C15.9285 23.5168 15.946 23.5049 15.9651 23.5138C15.9855 23.5227 16.0104 23.5389 16.0191 23.5582C16.0279 23.5759 16.0162 23.6025 16.0148 23.6277ZM16.2297 16.4369C16.2121 16.4531 16.18 16.465 16.1522 16.4679C16.1244 16.4694 16.1303 16.4162 16.1653 16.3851C16.1814 16.3703 16.199 16.357 16.218 16.3452C16.2297 16.3378 16.2472 16.3378 16.3042 16.323C16.2662 16.3822 16.2545 16.4147 16.2297 16.4384V16.4369ZM16.6083 23.6765C16.5762 23.7283 16.5586 23.7312 16.4826 23.6809C16.5045 23.6602 16.525 23.641 16.5455 23.6203C16.5528 23.5626 16.5381 23.5079 16.5089 23.4591C16.4841 23.4162 16.4738 23.3748 16.5031 23.3245C16.5879 23.3511 16.6419 23.3984 16.6419 23.4975C16.6419 23.5597 16.6449 23.6203 16.6098 23.6765H16.6083ZM18.4811 24.0758C18.4563 24.1069 18.427 24.098 18.3642 24.0388C18.4197 23.9871 18.4665 23.9442 18.525 23.8909C18.541 23.9693 18.5206 24.0255 18.4811 24.0773V24.0758ZM18.813 24.4722C18.8013 24.4308 18.7896 24.3894 18.7764 24.3435C18.8466 24.382 18.8481 24.3864 18.813 24.4722ZM19.0308 24.3997C19.1083 24.3716 19.1712 24.3701 19.234 24.3864C19.2443 24.3894 19.2516 24.4042 19.2589 24.4145C19.1872 24.4234 19.1156 24.4308 19.0308 24.3997ZM19.2852 24.4322C19.2852 24.4322 19.2735 24.4234 19.2691 24.4175C19.2764 24.4175 19.2837 24.4145 19.2896 24.4145C19.294 24.4145 19.2984 24.4175 19.3027 24.4204C19.2969 24.4249 19.2896 24.4337 19.2852 24.4322ZM19.8539 24.0167C19.8364 23.9708 19.8305 23.919 19.8188 23.8702C19.8232 23.8688 19.829 23.8673 19.8334 23.8658C19.8671 23.919 19.9007 23.9723 19.9343 24.0241C19.8963 24.0551 19.8656 24.0507 19.8524 24.0167H19.8539ZM20.5001 21.0676C20.4679 21.0986 20.4314 21.1238 20.3758 21.1667C20.3641 21.1105 20.3495 21.0794 20.3568 21.0543C20.3641 21.0276 20.389 21.0055 20.4109 20.9847C20.4197 20.9759 20.4416 20.97 20.4533 20.9744C20.4752 20.9833 20.4986 20.9951 20.5118 21.0143C20.5191 21.0247 20.5118 21.0572 20.5016 21.0676H20.5001ZM20.9445 21.1282C20.9811 21.143 21.0191 21.1534 21.0644 21.1696C21.0381 21.214 21.0162 21.251 20.9972 21.285C20.9782 21.2805 20.9635 21.2805 20.9606 21.2746C20.9285 21.214 20.9021 21.1489 20.832 21.1193C20.8247 21.1164 20.8276 21.0927 20.8246 21.0779C20.8656 21.0942 20.9051 21.1119 20.9445 21.1282ZM20.6843 21.1134C20.6536 21.0824 20.6755 21.0631 20.6916 21.0469C20.7121 21.0276 20.7355 21.0306 20.7589 21.0469C20.7779 21.0602 20.7998 21.0661 20.8217 21.075C20.7749 21.0868 20.7296 21.1001 20.6843 21.1119V21.1134ZM20.7545 23.6647C20.6887 23.567 20.7018 23.5419 20.8524 23.4576C20.8685 23.4768 20.8817 23.4872 20.8875 23.5005C20.8919 23.5138 20.8875 23.5301 20.8875 23.5493H20.7954C20.7881 23.57 20.7823 23.5892 20.7749 23.607C20.7691 23.6247 20.7618 23.6425 20.753 23.6647H20.7545ZM20.8627 24.2577C20.8597 24.2784 20.8393 24.2977 20.8203 24.3287C20.8042 24.3006 20.791 24.2858 20.7852 24.2681C20.7618 24.1912 20.7735 24.1172 20.7998 24.0433C20.8247 23.9723 20.8437 23.9649 20.9504 23.9945C20.8817 24.0995 20.8831 24.0995 20.8627 24.2563V24.2577ZM21.0001 23.7416C21.0191 23.7238 21.0527 23.712 21.079 23.712C21.1024 23.712 21.1141 23.7623 21.0966 23.8052C21.082 23.8421 21.06 23.8747 21.041 23.9102C20.9475 23.8466 20.9358 23.7992 20.9986 23.7416H21.0001ZM21.0498 24.7783C20.9928 24.7502 20.9752 24.7073 20.9752 24.6526C21.003 24.6216 21.0323 24.5935 21.0571 24.5609C21.0717 24.5417 21.0776 24.5151 21.0907 24.4885C21.1361 24.5166 21.1814 24.5447 21.2296 24.5757C21.2515 24.7192 21.1331 24.731 21.0513 24.7769L21.0498 24.7783ZM21.5439 24.5018C21.5391 24.4081 21.5717 24.341 21.6419 24.3006C21.6551 24.4041 21.6419 24.4337 21.5439 24.5018ZM21.7983 23.1662C21.8188 23.3156 21.7837 23.3526 21.6419 23.3348C21.5805 23.3275 21.5688 23.3215 21.4665 23.2358C21.4825 23.2136 21.4957 23.1855 21.5176 23.1707C21.5629 23.1396 21.617 23.1189 21.6624 23.0879C21.734 23.0391 21.8027 23.0435 21.8919 23.0923C21.851 23.1248 21.8246 23.1455 21.7998 23.1662H21.7983ZM22.1945 24.0522C22.1624 24.0655 22.1287 24.0758 22.079 24.0921C22.0907 23.9723 22.1053 23.9501 22.1711 23.9471C22.2004 23.9471 22.2325 23.9457 22.253 23.9767C22.2676 24.0004 22.2457 24.0314 22.196 24.0522H22.1945ZM22.3115 23.3851C22.2662 23.3807 22.2208 23.3674 22.177 23.3585C22.1448 23.3526 22.1156 23.3541 22.0951 23.3851C22.0644 23.4325 22.0279 23.4221 21.9898 23.3984C21.9738 23.3881 21.9606 23.3718 21.9401 23.3511C21.9518 23.3319 21.9665 23.3171 21.9723 23.2993C21.9972 23.1973 22.041 23.1145 22.1448 23.113C22.1901 23.0524 22.1755 22.9991 22.1828 22.9488C22.1872 22.9133 22.2077 22.8941 22.2428 22.8912C22.2764 22.8882 22.3012 22.9015 22.3173 22.9326C22.3393 22.9769 22.3334 23.0124 22.2983 23.042C22.2866 23.0524 22.272 23.0568 22.2588 23.0657C22.2369 23.0819 22.2179 23.1026 22.2311 23.1293C22.2384 23.1455 22.2618 23.1648 22.2764 23.1648C22.3597 23.1588 22.4182 23.215 22.4898 23.2417C22.5015 23.2461 22.5059 23.2653 22.5147 23.2786C22.4723 23.3689 22.3992 23.3925 22.3115 23.3837V23.3851ZM22.5907 22.4519C22.5878 22.3794 22.6463 22.3676 22.6989 22.3321C22.734 22.3706 22.7559 22.3972 22.7793 22.4223C22.7691 22.4356 22.7647 22.446 22.7574 22.4504C22.7047 22.4726 22.6507 22.4815 22.5922 22.4534L22.5907 22.4519ZM23.0381 24.169C23.0381 24.169 23.0147 24.1749 23.0118 24.169C22.9928 24.1468 22.9694 24.1261 22.9606 24.0995C22.9533 24.0803 22.9679 24.0551 22.9723 24.0329C22.984 24.0314 22.9942 24.0285 23.0059 24.027C23.0235 24.061 23.0439 24.095 23.0585 24.132C23.0615 24.1409 23.0498 24.1586 23.041 24.169H23.0381ZM23.2808 24.4722C23.2793 24.4796 23.2691 24.4899 23.2618 24.4914C23.2354 24.4958 23.2033 24.4663 23.2047 24.4367C23.2047 24.4263 23.2208 24.4189 23.2267 24.4115C23.2676 24.416 23.2881 24.4411 23.2793 24.4722H23.2808ZM23.4372 24.2548C23.3802 24.277 23.3305 24.2622 23.2852 24.2C23.3349 24.1779 23.3773 24.1586 23.427 24.1365C23.3933 24.0817 23.348 24.1113 23.3144 24.098C23.3071 24.095 23.2954 24.0817 23.2968 24.0788C23.3027 24.0669 23.3115 24.0477 23.3217 24.0477C23.389 24.0433 23.4504 24.064 23.5147 24.101C23.5001 24.1616 23.5074 24.2281 23.4372 24.2548ZM23.9006 23.5094C23.8919 23.5597 23.886 23.6159 23.8582 23.6543C23.8056 23.7283 23.8158 23.7859 23.8699 23.8481C23.8758 23.854 23.8758 23.8658 23.8787 23.8762C23.8641 23.9087 23.8392 23.9028 23.8158 23.888C23.7618 23.8554 23.7179 23.8126 23.7077 23.746C23.7003 23.7046 23.6901 23.6661 23.6463 23.6321C23.5717 23.6706 23.4898 23.6676 23.405 23.6454C23.3539 23.6321 23.3246 23.6085 23.3129 23.5567C23.3056 23.5227 23.2954 23.4901 23.2808 23.4413C23.2428 23.4827 23.2179 23.5123 23.1857 23.5463C23.1492 23.536 23.1126 23.5256 23.0717 23.5153C23.0454 23.5404 23.0205 23.5641 22.9942 23.5892C22.9723 23.5833 22.9533 23.5804 22.9343 23.5744C22.9153 23.567 22.7267 23.5168 22.7091 23.5138C22.6901 23.5094 22.6638 23.5079 22.655 23.4946C22.6419 23.4768 22.6419 23.4487 22.6375 23.428C22.6799 23.397 22.7311 23.4236 22.7603 23.3689C22.8217 23.2579 22.8597 23.2491 23.003 23.3008C23.0264 23.2653 23.0498 23.2313 23.0702 23.2003C23.0922 23.2121 23.1053 23.215 23.1083 23.2224C23.158 23.326 23.2252 23.3644 23.3275 23.3659C23.408 23.3659 23.4884 23.3792 23.5673 23.394C23.6258 23.4044 23.6302 23.465 23.6433 23.5227C23.6843 23.5064 23.7164 23.4946 23.7471 23.4813C23.7749 23.4694 23.8012 23.4532 23.8305 23.4472C23.8656 23.4399 23.9065 23.4739 23.9006 23.5094ZM24.2632 22.9592C24.2749 22.9281 24.2983 22.8971 24.3232 22.8749C24.3612 22.8423 24.4123 22.8557 24.4386 22.9015C24.4591 22.937 24.481 22.9725 24.4664 23.0139C24.4123 23.0524 24.3597 23.0893 24.3027 23.1293C24.2895 23.1248 24.272 23.1174 24.2559 23.1115C24.2501 23.0982 24.2427 23.0893 24.2442 23.0805C24.2486 23.0405 24.2501 22.9976 24.2632 22.9592ZM24.9767 23.8407C24.9386 23.8481 24.8962 23.8466 24.8568 23.8407C24.7515 23.8185 24.6477 23.7948 24.5395 23.8007C24.5351 23.8007 24.5293 23.8007 24.5249 23.8007C24.4518 23.783 24.3787 23.749 24.3056 23.749C24.2325 23.749 24.1653 23.7356 24.0951 23.7223C24.0863 23.7223 24.0805 23.7105 24.0658 23.6972C24.0775 23.6839 24.0878 23.6676 24.0995 23.6543C24.1594 23.5892 24.1594 23.5892 24.0702 23.5271C24.1082 23.5138 24.1419 23.5034 24.1755 23.4916C24.2077 23.5212 24.2369 23.5478 24.2632 23.573C24.2793 23.5685 24.2924 23.5685 24.2983 23.5626C24.3085 23.5523 24.3144 23.536 24.3217 23.5242C24.3553 23.4724 24.3831 23.468 24.4123 23.5123C24.4445 23.5641 24.4898 23.607 24.5059 23.6706C24.5191 23.7209 24.5556 23.7283 24.6009 23.7002C24.6638 23.6632 24.6726 23.6499 24.7033 23.5582C24.772 23.5715 24.8173 23.6469 24.905 23.6306C24.9065 23.5996 24.9094 23.567 24.9109 23.5227C24.9533 23.57 24.9883 23.607 25.0176 23.6469C25.0351 23.6706 25.0468 23.7016 25.0527 23.7312C25.0644 23.7918 25.0395 23.8333 24.9781 23.8451L24.9767 23.8407ZM25.7252 23.1234C25.7252 23.1234 25.7456 23.1337 25.7471 23.1411C25.7588 23.1914 25.7003 23.2535 25.6492 23.2446C25.6418 23.2446 25.6375 23.2313 25.6302 23.2239C25.6345 23.181 25.6842 23.1263 25.7252 23.1248V23.1234ZM25.1345 24.0595C25.1375 24.03 25.1404 24.0063 25.1448 23.9723C25.2296 23.9886 25.3158 23.9575 25.3977 24.027C25.3071 24.061 25.2267 24.0714 25.1345 24.0595ZM26.4065 23.8954C26.3962 23.9442 26.3611 23.9826 26.31 23.9782C26.1579 23.9664 26.0059 23.9664 25.8538 23.956C25.753 23.9501 25.655 23.919 25.5541 23.8998C25.5103 23.8909 25.4781 23.8732 25.4723 23.8229C25.4708 23.8111 25.4533 23.8007 25.4445 23.7904C25.3743 23.8081 25.3421 23.9028 25.2486 23.8747C25.2588 23.8525 25.269 23.8303 25.2822 23.8007C25.2559 23.7889 25.2296 23.7771 25.2047 23.7638C25.1302 23.7268 25.1243 23.6558 25.1945 23.6114C25.212 23.6011 25.2325 23.5951 25.2544 23.5863C25.2983 23.6055 25.3436 23.6277 25.3904 23.6469C25.4386 23.6676 25.4781 23.6573 25.5117 23.6129C25.5293 23.5907 25.5527 23.573 25.5746 23.5537C25.6214 23.6055 25.6579 23.6528 25.7033 23.6913C25.7296 23.7135 25.7661 23.7238 25.8012 23.7327C25.829 23.7386 25.8611 23.7327 25.886 23.7327C25.9342 23.6898 25.8904 23.6085 25.9737 23.5818C26 23.5907 26.0366 23.6085 26.0746 23.6173C26.0907 23.6218 26.1185 23.6144 26.1272 23.6025C26.136 23.5922 26.1331 23.5641 26.1272 23.5478C26.1199 23.5301 26.1038 23.5168 26.0907 23.502C26.1097 23.4709 26.136 23.4857 26.1579 23.4887C26.193 23.4916 26.2266 23.5034 26.2617 23.5049C26.2851 23.5049 26.291 23.4842 26.2895 23.462C26.3056 23.4946 26.3158 23.5256 26.2954 23.5611C26.2749 23.5966 26.2544 23.6321 26.2106 23.644C26.1857 23.6499 26.1608 23.6587 26.1404 23.6721C26.1316 23.678 26.1331 23.6987 26.1301 23.7105C26.2047 23.7356 26.2778 23.7549 26.3465 23.7845C26.3992 23.8066 26.4152 23.8466 26.405 23.8954H26.4065ZM27.5088 24.2563C27.4956 24.2563 27.481 24.2518 27.4664 24.2489C27.4883 24.2104 27.5161 24.2296 27.5439 24.2415C27.5322 24.2459 27.5205 24.2548 27.5088 24.2548V24.2563Z" fill="#F8F5EF"/>
</svg>
